<svg xmlns="http://www.w3.org/2000/svg" version="1.1" xmlns:xlink="http://www.w3.org/1999/xlink" xmlns:svgjs="http://svgjs.dev/svgjs" viewBox="0 0 17.787600872230534 13.775185064917691"><g transform="matrix(1,0,0,1,1.3023142855470855,10.444939919995608)"><rect width="17.787600872230534" height="17.787600872230534" x="-1.3023142855470846" y="-12.451147823652029" fill="#343432"></rect><g><path d=" M 0.07050000000000001 1.188 L 0.07050000000000001 0.9299999999999999 L 0.2115 0.9299999999999999 L 0.2115 0.28049999999999997 L 0.07050000000000001 0.28049999999999997 L 0.07050000000000001 0.022499999999999964 L 1.0545 0.022499999999999964 L 1.0545 0.4859999999999999 L 0.867 0.4859999999999999 L 0.7965 0.28049999999999997 L 0.5865 0.28049999999999997 L 0.5865 0.471 L 0.774 0.471 L 0.774 0.6629999999999999 L 0.5865 0.6629999999999999 L 0.5865 0.9299999999999999 L 0.7965 0.9299999999999999 L 0.867 0.6915 L 1.0545 0.6915 L 1.0545 1.188 L 0.07050000000000001 1.188 M 1.1715117187500002 1.188 L 1.1715117187500002 0.9299999999999999 L 1.2885117187500001 0.9299999999999999 L 1.2885117187500001 0.28049999999999997 L 1.1715117187500002 0.28049999999999997 L 1.1715117187500002 0.022499999999999964 L 1.7805117187500001 0.022499999999999964 L 1.7805117187500001 0.28049999999999997 L 1.6635117187500001 0.28049999999999997 L 1.6635117187500001 0.9299999999999999 L 1.7805117187500001 0.9299999999999999 L 1.7805117187500001 1.188 L 1.1715117187500002 1.188 M 2.1622829589843753 1.131 Q 2.029532958984375 1.053 1.9605329589843752 0.91575 Q 1.8915329589843752 0.7785 1.8915329589843752 0.603 Q 1.8915329589843752 0.4214999999999999 1.9605329589843752 0.2849999999999999 Q 2.029532958984375 0.14849999999999985 2.1615329589843753 0.07424999999999993 Q 2.2935329589843754 0 2.4780329589843753 0 Q 2.662532958984375 0 2.7945329589843753 0.07424999999999993 Q 2.9265329589843754 0.14849999999999985 2.9955329589843753 0.2849999999999999 Q 3.0645329589843753 0.4214999999999999 3.0645329589843753 0.603 Q 3.0645329589843753 0.7785 2.9955329589843753 0.91575 Q 2.9265329589843754 1.053 2.7937829589843752 1.131 Q 2.661032958984375 1.2089999999999999 2.4780329589843753 1.2089999999999999 Q 2.2950329589843754 1.2089999999999999 2.1622829589843753 1.131 M 2.5995329589843754 0.8534999999999999 Q 2.6415329589843752 0.7575 2.6415329589843752 0.597 Q 2.6415329589843752 0.44099999999999995 2.6010329589843755 0.35024999999999995 Q 2.5605329589843753 0.25949999999999995 2.4780329589843753 0.25949999999999995 Q 2.3955329589843752 0.25949999999999995 2.355032958984375 0.35024999999999995 Q 2.3145329589843753 0.44099999999999995 2.3145329589843753 0.597 Q 2.3145329589843753 0.7575 2.356532958984375 0.8534999999999999 Q 2.3985329589843754 0.9494999999999999 2.4780329589843753 0.9494999999999999 Q 2.557532958984375 0.9494999999999999 2.5995329589843754 0.8534999999999999 M 3.2235607910156254 1.188 L 3.2235607910156254 0.9255 L 3.3420607910156255 0.9255 L 3.3420607910156255 0.2789999999999999 L 3.2265607910156255 0.2789999999999999 L 3.2265607910156255 0.020999999999999908 L 3.7650607910156255 0.020999999999999908 L 4.129560791015625 0.714 L 4.129560791015625 0.28049999999999997 L 4.012560791015625 0.28049999999999997 L 4.012560791015625 0.022499999999999964 L 4.479060791015625 0.022499999999999964 L 4.479060791015625 0.28049999999999997 L 4.363560791015625 0.28049999999999997 L 4.363560791015625 1.188 L 3.919560791015625 1.188 L 3.5730607910156253 0.5445 L 3.5730607910156253 0.9255 L 3.6900607910156253 0.9255 L 3.6900607910156253 1.188 L 3.2235607910156254 1.188 M 4.905038818359375 0.9299999999999999 L 5.022038818359375 0.9299999999999999 L 5.022038818359375 0.28049999999999997 L 4.905038818359375 0.28049999999999997 L 4.905038818359375 0.022499999999999964 L 5.445038818359375 0.022499999999999964 Q 5.763038818359375 0.022499999999999964 5.931788818359375 0.16949999999999998 Q 6.100538818359375 0.3164999999999999 6.100538818359375 0.6044999999999999 Q 6.100538818359375 0.885 5.932538818359375 1.0365 Q 5.764538818359375 1.188 5.443538818359375 1.188 L 4.905038818359375 1.188 L 4.905038818359375 0.9299999999999999 M 5.443538818359375 0.9299999999999999 Q 5.566538818359375 0.9299999999999999 5.622788818359375 0.83775 Q 5.679038818359375 0.7454999999999999 5.679038818359375 0.6044999999999999 Q 5.679038818359375 0.4604999999999999 5.623538818359375 0.37049999999999994 Q 5.568038818359375 0.28049999999999997 5.443538818359375 0.28049999999999997 L 5.397038818359375 0.28049999999999997 L 5.397038818359375 0.9299999999999999 L 5.443538818359375 0.9299999999999999 M 6.289510986328125 1.188 L 6.289510986328125 0.9299999999999999 L 6.406510986328125 0.9299999999999999 L 6.406510986328125 0.28049999999999997 L 6.289510986328125 0.28049999999999997 L 6.289510986328125 0.022499999999999964 L 6.898510986328125 0.022499999999999964 L 6.898510986328125 0.28049999999999997 L 6.781510986328125 0.28049999999999997 L 6.781510986328125 0.9299999999999999 L 6.898510986328125 0.9299999999999999 L 6.898510986328125 1.188 L 6.289510986328125 1.188 M 7.334282226562499 1.143 Q 7.186532226562499 1.077 7.098032226562499 0.9375 Q 7.0095322265624995 0.7979999999999999 7.0095322265624995 0.5864999999999999 Q 7.0095322265624995 0.4185 7.0792822265624995 0.2849999999999999 Q 7.1490322265624995 0.15149999999999997 7.281782226562499 0.07574999999999998 Q 7.4145322265625 0 7.5945322265624995 0 Q 7.6710322265625 0 7.7430322265625 0.025499999999999856 Q 7.8150322265625 0.050999999999999934 7.8570322265625 0.10049999999999981 L 7.8810322265625 0.022499999999999964 L 8.134532226562499 0.022499999999999964 L 8.134532226562499 0.45299999999999996 L 7.9080322265625 0.45299999999999996 Q 7.8855322265625 0.3599999999999999 7.821032226562499 0.31275 Q 7.756532226562499 0.26549999999999996 7.686032226562499 0.26549999999999996 Q 7.569032226562499 0.26549999999999996 7.5007822265624995 0.351 Q 7.4325322265625 0.4364999999999999 7.4325322265625 0.5864999999999999 Q 7.4325322265625 0.738 7.5000322265624995 0.8242499999999999 Q 7.567532226562499 0.9104999999999999 7.6905322265625 0.9104999999999999 Q 7.7220322265625 0.9104999999999999 7.753532226562499 0.9044999999999999 Q 7.7850322265625 0.8985 7.8045322265624995 0.8917499999999999 Q 7.824032226562499 0.885 7.8300322265624995 0.8835 L 7.8300322265624995 0.7799999999999999 L 7.6890322265624995 0.7799999999999999 L 7.6890322265624995 0.5624999999999999 L 8.1585322265625 0.5624999999999999 L 8.1585322265625 1.0859999999999999 Q 8.046032226562499 1.146 7.917032226562499 1.1775 Q 7.7880322265625 1.2089999999999999 7.660532226562499 1.2089999999999999 Q 7.4820322265625 1.2089999999999999 7.334282226562499 1.143 M 8.334037353515624 1.188 L 8.334037353515624 0.9299999999999999 L 8.451037353515623 0.9299999999999999 L 8.451037353515623 0.28049999999999997 L 8.334037353515624 0.28049999999999997 L 8.334037353515624 0.022499999999999964 L 8.943037353515624 0.022499999999999964 L 8.943037353515624 0.28049999999999997 L 8.826037353515623 0.28049999999999997 L 8.826037353515623 0.9299999999999999 L 8.943037353515624 0.9299999999999999 L 8.943037353515624 1.188 L 8.334037353515624 1.188 M 9.27455859375 1.188 L 9.27455859375 0.9239999999999999 L 9.39455859375 0.9239999999999999 L 9.39455859375 0.28049999999999997 L 9.29105859375 0.28049999999999997 L 9.25955859375 0.48149999999999993 L 9.05405859375 0.48149999999999993 L 9.05405859375 0.022499999999999964 L 10.15055859375 0.022499999999999964 L 10.15055859375 0.48149999999999993 L 9.94505859375 0.48149999999999993 L 9.91355859375 0.28049999999999997 L 9.80705859375 0.28049999999999997 L 9.80705859375 0.9239999999999999 L 9.927058593749999 0.9239999999999999 L 9.927058593749999 1.188 L 9.27455859375 1.188 M 10.245075439453124 1.188 L 10.245075439453124 0.9299999999999999 L 10.360575439453125 0.9299999999999999 L 10.561575439453126 0.28049999999999997 L 10.408575439453125 0.28049999999999997 L 10.408575439453125 0.022499999999999964 L 11.134575439453126 0.022499999999999964 L 11.394075439453125 0.9299999999999999 L 11.509575439453126 0.9299999999999999 L 11.509575439453126 1.188 L 10.854075439453126 1.188 L 10.854075439453126 0.9299999999999999 L 10.948575439453126 0.9299999999999999 L 10.917075439453125 0.8054999999999999 L 10.653075439453126 0.8054999999999999 L 10.620075439453124 0.9299999999999999 L 10.759575439453126 0.9299999999999999 L 10.759575439453126 1.188 L 10.245075439453124 1.188 M 10.690575439453125 0.6285 L 10.882575439453126 0.6285 L 10.797075439453126 0.27149999999999996 L 10.690575439453125 0.6285 M 11.619088623046876 1.188 L 11.619088623046876 0.9255 L 11.736088623046875 0.9255 L 11.736088623046875 0.28049999999999997 L 11.619088623046876 0.28049999999999997 L 11.619088623046876 0.022499999999999964 L 12.228088623046876 0.022499999999999964 L 12.228088623046876 0.28049999999999997 L 12.111088623046875 0.28049999999999997 L 12.111088623046875 0.9255 L 12.298588623046875 0.9255 L 12.369088623046876 0.6689999999999999 L 12.555088623046876 0.6689999999999999 L 12.555088623046876 1.188 L 11.619088623046876 1.188" fill="#f9f9f9" fill-rule="nonzero"></path></g><g><path d=" M 0.02716619318181818 1.7027355468749996 Q 0.01837713068181818 1.7027355468749996 0.013716264204545454 1.6968761718749996 Q 0.009055397727272726 1.6910167968749996 0.009055397727272726 1.6814287286931815 L 0.013050426136363636 1.5823520241477271 Q 0.013316761363636362 1.5719649502840907 0.016779119318181816 1.5667714133522725 Q 0.020241477272727272 1.5615778764204542 0.029296874999999997 1.5615778764204542 L 0.4133522727272727 1.5615778764204542 Q 0.42187499999999994 1.5615778764204542 0.4256036931818182 1.5669045809659088 Q 0.42933238636363635 1.5722312855113634 0.42959872159090906 1.5823520241477271 L 0.43359374999999994 1.6814287286931815 Q 0.43359374999999994 1.6910167968749996 0.42893288352272724 1.6968761718749996 Q 0.42427201704545453 1.7027355468749996 0.41548295454545453 1.7027355468749996 Q 0.40616122159090906 1.7027355468749996 0.4004350142045454 1.6987405184659088 Q 0.39470880681818177 1.694745490056818 0.3936434659090909 1.6848910866477271 L 0.38538707386363635 1.6084528764204542 L 0.24955610795454544 1.6084528764204542 L 0.24955610795454544 1.9712014559659088 L 0.3201349431818182 1.9712014559659088 Q 0.33025568181818177 1.9712014559659088 0.33465021306818177 1.9785256747159088 Q 0.33904474431818177 1.9858498934659088 0.33904474431818177 1.9957042968749996 Q 0.33904474431818177 2.0044933593749996 0.333984375 2.011284907670454 Q 0.3289240056818182 2.018076455965909 0.3196022727272727 2.018076455965909 L 0.11772017045454544 2.018076455965909 Q 0.10839843749999999 2.018076455965909 0.10320490056818181 2.011284907670454 Q 0.09801136363636363 2.0044933593749996 0.09801136363636363 1.9957042968749996 Q 0.09801136363636363 1.9858498934659088 0.10253906249999999 1.9785256747159088 Q 0.10706676136363635 1.9712014559659088 0.11718749999999999 1.9712014559659088 L 0.1875 1.9712014559659088 L 0.1875 1.6084528764204542 L 0.05699573863636363 1.6084528764204542 L 0.049005681818181816 1.6848910866477271 Q 0.047940340909090905 1.6950118252840907 0.04221413352272727 1.6988736860795453 Q 0.03648792613636363 1.7027355468749996 0.02716619318181818 1.7027355468749996 L 0.02716619318181818 1.7027355468749996 M 0.4549005681818181 1.9957042968749996 Q 0.4549005681818181 1.9858498934659088 0.4594282670454545 1.9785256747159088 Q 0.46395596590909083 1.9712014559659088 0.4740767045454545 1.9712014559659088 L 0.5334694602272727 1.9712014559659088 L 0.5334694602272727 1.6084528764204542 L 0.47966974431818177 1.6084528764204542 Q 0.4695490056818181 1.6084528764204542 0.46502130681818177 1.6011286576704542 Q 0.4604936079545454 1.5938044389204542 0.4604936079545454 1.5839500355113634 Q 0.4604936079545454 1.5751609730113634 0.4656871448863636 1.5683694247159088 Q 0.47088068181818177 1.5615778764204542 0.48020241477272724 1.5615778764204542 L 0.6493252840909091 1.5615778764204542 Q 0.6586470170454545 1.5615778764204542 0.6637073863636362 1.5683694247159088 Q 0.6687677556818181 1.5751609730113634 0.6687677556818181 1.5839500355113634 Q 0.6687677556818181 1.5938044389204542 0.6643732244318181 1.6011286576704542 Q 0.6599786931818181 1.6084528764204542 0.6498579545454545 1.6084528764204542 L 0.5957919034090908 1.6084528764204542 L 0.5957919034090908 1.7615956321022725 L 0.8440163352272727 1.7615956321022725 L 0.8440163352272727 1.6084528764204542 L 0.789950284090909 1.6084528764204542 Q 0.7798295454545454 1.6084528764204542 0.775301846590909 1.6011286576704542 Q 0.7707741477272727 1.5938044389204542 0.7707741477272727 1.5839500355113634 Q 0.7707741477272727 1.5751609730113634 0.7759676846590908 1.5683694247159088 Q 0.781161221590909 1.5615778764204542 0.7904829545454545 1.5615778764204542 L 0.954012784090909 1.5615778764204542 Q 0.9633345170454544 1.5615778764204542 0.9685280539772727 1.5683694247159088 Q 0.9737215909090908 1.5751609730113634 0.9737215909090908 1.5839500355113634 Q 0.9737215909090908 1.5938044389204542 0.9691938920454544 1.6011286576704542 Q 0.9646661931818181 1.6084528764204542 0.9545454545454544 1.6084528764204542 L 0.9060724431818181 1.6084528764204542 L 0.9060724431818181 1.9712014559659088 L 0.9545454545454544 1.9712014559659088 Q 0.9646661931818181 1.9712014559659088 0.9691938920454544 1.9785256747159088 Q 0.9737215909090908 1.9858498934659088 0.9737215909090908 1.9957042968749996 Q 0.9737215909090908 2.0044933593749996 0.9685280539772727 2.011284907670454 Q 0.9633345170454544 2.018076455965909 0.954012784090909 2.018076455965909 L 0.7904829545454545 2.018076455965909 Q 0.781161221590909 2.018076455965909 0.7759676846590908 2.011284907670454 Q 0.7707741477272727 2.0044933593749996 0.7707741477272727 1.9957042968749996 Q 0.7707741477272727 1.9858498934659088 0.775301846590909 1.9785256747159088 Q 0.7798295454545454 1.9712014559659088 0.789950284090909 1.9712014559659088 L 0.8440163352272727 1.9712014559659088 L 0.8440163352272727 1.8082042968749996 L 0.5957919034090908 1.8082042968749996 L 0.5957919034090908 1.9712014559659088 L 0.6498579545454545 1.9712014559659088 Q 0.6599786931818181 1.9712014559659088 0.6643732244318181 1.9785256747159088 Q 0.6687677556818181 1.9858498934659088 0.6687677556818181 1.9957042968749996 Q 0.6687677556818181 2.0044933593749996 0.6637073863636362 2.011284907670454 Q 0.6586470170454545 2.018076455965909 0.6493252840909091 2.018076455965909 L 0.47460937499999994 2.018076455965909 Q 0.4652876420454545 2.018076455965909 0.4600941051136363 2.011284907670454 Q 0.4549005681818181 2.0044933593749996 0.4549005681818181 1.9957042968749996 L 0.4549005681818181 1.9957042968749996 M 1.2951882102272725 1.8452248934659088 Q 1.2951882102272725 1.8545466264204542 1.2903941761363635 1.8605391690340907 Q 1.2856001420454544 1.866531711647727 1.2765447443181817 1.866531711647727 Q 1.268288352272727 1.866531711647727 1.2628284801136362 1.8612050071022725 Q 1.2573686079545454 1.855878302556818 1.2552379261363635 1.8484209161931815 L 1.2416548295454544 1.7988825639204542 L 1.1526988636363635 1.7988825639204542 L 1.1526988636363635 1.9712014559659088 L 1.3878728693181817 1.9712014559659088 L 1.418767755681818 1.8833108309659088 Q 1.4224964488636362 1.8750544389204542 1.4291548295454544 1.869061896306818 Q 1.4358132102272725 1.8630693536931815 1.446200284090909 1.8630693536931815 Q 1.454989346590909 1.8630693536931815 1.4603160511363635 1.868396058238636 Q 1.465642755681818 1.8737227627840907 1.465642755681818 1.8827781605113634 Q 1.465642755681818 1.8854415127840907 1.465243252840909 1.888104865056818 Q 1.4648437499999998 1.8907682173295453 1.4640447443181817 1.8931652343749996 L 1.4472656249999998 1.997302308238636 Q 1.4446022727272725 2.006890376420454 1.4398082386363635 2.0124834161931817 Q 1.4350142045454544 2.018076455965909 1.4254261363636362 2.018076455965909 L 1.0152698863636362 2.018076455965909 Q 1.0059481534090908 2.018076455965909 1.0007546164772727 2.011284907670454 Q 0.9955610795454545 2.0044933593749996 0.9955610795454545 1.9957042968749996 Q 0.9955610795454545 1.9858498934659088 1.0000887784090908 1.9785256747159088 Q 1.004616477272727 1.9712014559659088 1.0147372159090908 1.9712014559659088 L 1.0906427556818181 1.9712014559659088 L 1.0906427556818181 1.6084528764204542 L 1.041903409090909 1.6084528764204542 Q 1.0317826704545454 1.6084528764204542 1.0273881392045454 1.6011286576704542 Q 1.0229936079545454 1.5938044389204542 1.0229936079545454 1.5839500355113634 Q 1.0229936079545454 1.5751609730113634 1.028053977272727 1.5683694247159088 Q 1.033114346590909 1.5615778764204542 1.0424360795454544 1.5615778764204542 L 1.4145063920454544 1.5615778764204542 Q 1.4240944602272725 1.5615778764204542 1.428622159090909 1.567304083806818 Q 1.4331498579545454 1.5730302911931815 1.436345880681818 1.5823520241477271 L 1.4619140624999998 1.6667802911931815 Q 1.462713068181818 1.6697099786931815 1.463112571022727 1.6723733309659088 Q 1.4635120738636362 1.675036683238636 1.4635120738636362 1.677167365056818 Q 1.4635120738636362 1.685956427556818 1.4580522017045454 1.6914162997159088 Q 1.4525923295454544 1.6968761718749996 1.444069602272727 1.6968761718749996 Q 1.4342151988636362 1.6968761718749996 1.427157315340909 1.6908836292613634 Q 1.4200994318181817 1.6848910866477271 1.4166370738636362 1.6766346946022725 L 1.3878728693181817 1.6084528764204542 L 1.1526988636363635 1.6084528764204542 L 1.1526988636363635 1.7605302911931815 L 1.2416548295454544 1.7605302911931815 L 1.2552379261363635 1.7109919389204542 Q 1.2573686079545454 1.703534552556818 1.2628284801136362 1.6982078480113634 Q 1.268288352272727 1.6928811434659088 1.2765447443181817 1.6928811434659088 Q 1.2856001420454544 1.6928811434659088 1.2903941761363635 1.6988736860795453 Q 1.2951882102272725 1.7048662286931815 1.2951882102272725 1.714187961647727 L 1.2911931818181817 1.778641086647727 L 1.2951882102272725 1.8452248934659088 M 1.9985795454545452 1.6923484730113634 Q 1.9985795454545452 1.6297596946022725 1.9437144886363633 1.6191062855113634 Q 1.8888494318181817 1.6084528764204542 1.832919034090909 1.6084528764204542 L 1.7777876420454544 1.6084528764204542 L 1.7777876420454544 1.7813044389204542 L 1.8491654829545452 1.7813044389204542 Q 1.9064275568181817 1.7813044389204542 1.9525035511363633 1.7686535156249996 Q 1.9985795454545452 1.7560025923295453 1.9985795454545452 1.6923484730113634 L 1.9985795454545452 1.6923484730113634 M 2.0614346590909087 1.6963435014204542 Q 2.0614346590909087 1.788495490056818 1.9907226562499998 1.8067394531249996 Q 1.9200106534090908 1.8249834161931815 1.8350497159090908 1.8249834161931815 L 1.7777876420454544 1.8249834161931815 L 1.7777876420454544 1.9712014559659088 L 1.8590198863636362 1.9712014559659088 Q 1.8691406249999998 1.9712014559659088 1.8736683238636362 1.9785256747159088 Q 1.8781960227272725 1.9858498934659088 1.8781960227272725 1.9957042968749996 Q 1.8781960227272725 2.0044933593749996 1.8730024857954544 2.011284907670454 Q 1.8678089488636362 2.018076455965909 1.8584872159090908 2.018076455965909 L 1.6456853693181817 2.018076455965909 Q 1.6363636363636362 2.018076455965909 1.6311700994318181 2.011284907670454 Q 1.6259765624999998 2.0044933593749996 1.6259765624999998 1.9957042968749996 Q 1.6259765624999998 1.9858498934659088 1.6305042613636362 1.9785256747159088 Q 1.6350319602272725 1.9712014559659088 1.6451526988636362 1.9712014559659088 L 1.7154651988636362 1.9712014559659088 L 1.7154651988636362 1.6084528764204542 L 1.6507457386363635 1.6084528764204542 Q 1.6406249999999998 1.6084528764204542 1.6360973011363635 1.6011286576704542 Q 1.631569602272727 1.5938044389204542 1.631569602272727 1.5839500355113634 Q 1.631569602272727 1.5751609730113634 1.6367631392045452 1.5683694247159088 Q 1.6419566761363635 1.5615778764204542 1.651278409090909 1.5615778764204542 L 1.8251953124999998 1.5615778764204542 Q 1.9141512784090908 1.5615778764204542 1.9877929687499998 1.581286683238636 Q 2.0614346590909087 1.600995490056818 2.0614346590909087 1.6963435014204542 L 2.0614346590909087 1.6963435014204542 M 2.333895596590909 2.024734836647727 Q 2.253995028409091 2.024734836647727 2.203125 1.980390021306818 Q 2.152254971590909 1.9360452059659088 2.152254971590909 1.8572099786931815 L 2.152254971590909 1.6084528764204542 L 2.1120383522727275 1.6084528764204542 Q 2.1019176136363638 1.6084528764204542 2.0973899147727275 1.6011286576704542 Q 2.092862215909091 1.5938044389204542 2.092862215909091 1.5839500355113634 Q 2.092862215909091 1.5751609730113634 2.098055752840909 1.5683694247159088 Q 2.1032492897727275 1.5615778764204542 2.112571022727273 1.5615778764204542 L 2.2681107954545454 1.5615778764204542 Q 2.277432528409091 1.5615778764204542 2.282492897727273 1.5683694247159088 Q 2.2875532670454546 1.5751609730113634 2.2875532670454546 1.5839500355113634 Q 2.2875532670454546 1.5938044389204542 2.2831587357954546 1.6011286576704542 Q 2.2787642045454546 1.6084528764204542 2.268643465909091 1.6084528764204542 L 2.2145774147727275 1.6084528764204542 L 2.2145774147727275 1.8572099786931815 Q 2.2145774147727275 1.9139393821022725 2.24560546875 1.9455001065340907 Q 2.276633522727273 1.9770608309659088 2.333895596590909 1.9770608309659088 Q 2.3860973011363638 1.9770608309659088 2.417391690340909 1.9435025923295453 Q 2.4486860795454546 1.9099443536931815 2.4486860795454546 1.857742649147727 L 2.4486860795454546 1.6084528764204542 L 2.3978160511363638 1.6084528764204542 Q 2.3876953125 1.6084528764204542 2.3831676136363638 1.6011286576704542 Q 2.3786399147727275 1.5938044389204542 2.3786399147727275 1.5839500355113634 Q 2.3786399147727275 1.5751609730113634 2.3838334517045454 1.5683694247159088 Q 2.3890269886363638 1.5615778764204542 2.398348721590909 1.5615778764204542 L 2.5456321022727275 1.5615778764204542 Q 2.5549538352272725 1.5615778764204542 2.560147372159091 1.5683694247159088 Q 2.565340909090909 1.5751609730113634 2.565340909090909 1.5839500355113634 Q 2.565340909090909 1.5938044389204542 2.5608132102272725 1.6011286576704542 Q 2.5562855113636362 1.6084528764204542 2.5461647727272725 1.6084528764204542 L 2.4998224431818183 1.6084528764204542 L 2.4998224431818183 1.857742649147727 Q 2.4998224431818183 1.9317838423295453 2.4537464488636362 1.978259339488636 Q 2.4076704545454546 2.024734836647727 2.333895596590909 2.024734836647727 L 2.333895596590909 2.024734836647727 M 2.777876420454545 1.7671886718749996 Q 2.838600852272727 1.7671886718749996 2.8849431818181817 1.756668430397727 Q 2.9312855113636362 1.7461481889204542 2.9312855113636362 1.6880871093749996 Q 2.9312855113636362 1.6289606889204542 2.879216974431818 1.6187067826704542 Q 2.8271484374999996 1.6084528764204542 2.768022017045454 1.6084528764204542 L 2.7288707386363633 1.6084528764204542 L 2.7288707386363633 1.7671886718749996 L 2.777876420454545 1.7671886718749996 M 2.9960049715909087 1.6854237571022725 Q 2.9960049715909087 1.7397561434659088 2.9605823863636362 1.7642589843749996 Q 2.9251598011363633 1.7887618252840907 2.873490767045454 1.7978172230113634 Q 2.8987926136363633 1.809003302556818 2.917702414772727 1.8271140980113634 Q 2.936612215909091 1.8452248934659088 2.9485973011363633 1.874255433238636 L 2.9885475852272725 1.970935120738636 L 3.0276988636363633 1.970935120738636 Q 3.043678977272727 1.970935120738636 3.0500710227272725 1.9765281605113634 Q 3.056463068181818 1.9821212002840907 3.056463068181818 1.9957042968749996 Q 3.056463068181818 2.0106190696022725 3.0484730113636362 2.014480930397727 Q 3.040482954545454 2.0183427911931817 3.0279651988636362 2.0183427911931817 L 2.9123757102272725 2.018076455965909 Q 2.903053977272727 2.018076455965909 2.8978604403409087 2.011284907670454 Q 2.892666903409091 2.0044933593749996 2.892666903409091 1.9957042968749996 Q 2.892666903409091 1.9858498934659088 2.897194602272727 1.9783925071022723 Q 2.9017223011363633 1.970935120738636 2.911843039772727 1.970935120738636 L 2.924893465909091 1.970935120738636 L 2.895063920454545 1.8955622514204542 Q 2.8830788352272725 1.865466370738636 2.856045809659091 1.8400313565340907 Q 2.8290127840909087 1.8145963423295453 2.7893288352272725 1.8145963423295453 L 2.7288707386363633 1.8145963423295453 L 2.7288707386363633 1.970935120738636 L 2.7991832386363633 1.970935120738636 Q 2.809303977272727 1.970935120738636 2.8138316761363633 1.9783925071022723 Q 2.8183593749999996 1.9858498934659088 2.8183593749999996 1.9957042968749996 Q 2.8183593749999996 2.0044933593749996 2.8131658380681817 2.011284907670454 Q 2.8079723011363633 2.018076455965909 2.798650568181818 2.018076455965909 L 2.6076882102272725 2.018076455965909 Q 2.598366477272727 2.018076455965909 2.5931729403409087 2.011284907670454 Q 2.587979403409091 2.0044933593749996 2.587979403409091 1.9957042968749996 Q 2.587979403409091 1.9858498934659088 2.592507102272727 1.9783925071022723 Q 2.5970348011363633 1.970935120738636 2.607155539772727 1.970935120738636 L 2.6665482954545454 1.970935120738636 L 2.6665482954545454 1.6084528764204542 L 2.6180752840909087 1.6084528764204542 Q 2.6079545454545454 1.6084528764204542 2.6034268465909087 1.6011286576704542 Q 2.5988991477272725 1.5938044389204542 2.5988991477272725 1.5839500355113634 Q 2.5988991477272725 1.5751609730113634 2.604092684659091 1.5683694247159088 Q 2.6092862215909087 1.5615778764204542 2.618607954545454 1.5615778764204542 L 2.7762784090909087 1.5615778764204542 Q 2.862837357954545 1.5615778764204542 2.929421164772727 1.5808871803977271 Q 2.9960049715909087 1.6001964843749996 2.9960049715909087 1.6854237571022725 L 2.9960049715909087 1.6854237571022725 M 3.2823153409090904 1.5970004616477271 Q 3.218394886363636 1.5970004616477271 3.1976207386363633 1.6211037997159088 Q 3.1768465909090904 1.6452071377840907 3.1768465909090904 1.6753030184659088 Q 3.1768465909090904 1.7011375355113634 3.1948242187499996 1.7169844815340907 Q 3.2128018465909087 1.732831427556818 3.248490767045454 1.741620490056818 L 3.3249289772727266 1.7605302911931815 Q 3.377397017045454 1.7735807173295453 3.410422585227272 1.8032770951704542 Q 3.4434481534090904 1.8329734730113634 3.4434481534090904 1.8960949218749996 Q 3.4434481534090904 1.965075745738636 3.388849431818181 1.9951716264204542 Q 3.334250710227272 2.0252675071022725 3.2644708806818175 2.0252675071022725 Q 3.2362393465909087 2.0252675071022725 3.206676136363636 2.017810120738636 Q 3.1771129261363633 2.0103527343749996 3.151544744318181 1.9927746093749996 Q 3.1504794034090904 2.0018300071022725 3.145951704545454 2.0132824218749996 Q 3.141424005681818 2.024734836647727 3.132368607954545 2.024734836647727 Q 3.1227805397727266 2.024734836647727 3.1169211647727266 2.020739808238636 Q 3.1110617897727266 2.016744779829545 3.109996448863636 2.0076893821022725 L 3.0948153409090904 1.8755871093749996 Q 3.0948153409090904 1.8649337002840907 3.101207386363636 1.8597401633522725 Q 3.107599431818181 1.8545466264204542 3.120383522727272 1.8545466264204542 Q 3.128373579545454 1.8545466264204542 3.1344992897727266 1.859207492897727 Q 3.1406249999999996 1.8638683593749996 3.1416903409090904 1.8718584161931815 L 3.145951704545454 1.9088790127840907 Q 3.148615056818181 1.9336481889204542 3.1827059659090904 1.955887180397727 Q 3.2167968749999996 1.9781261718749996 3.2578124999999996 1.9781261718749996 Q 3.303355823863636 1.9781261718749996 3.3461026278409087 1.9618797230113634 Q 3.388849431818181 1.945633274147727 3.388849431818181 1.895828586647727 Q 3.388849431818181 1.8598733309659088 3.367143110795454 1.8457575639204542 Q 3.3454367897727266 1.8316417968749996 3.315607244318181 1.8231190696022725 L 3.2282492897727266 1.7983498934659088 Q 3.1805752840909087 1.7876964843749996 3.1492808948863633 1.7603971235795453 Q 3.117986505681818 1.7330977627840907 3.117986505681818 1.6795643821022725 Q 3.117986505681818 1.6212369673295453 3.1636629971590904 1.5880782315340907 Q 3.2093394886363633 1.554919495738636 3.2735262784090904 1.554919495738636 Q 3.301225142045454 1.554919495738636 3.3303888494318175 1.5618442116477271 Q 3.359552556818181 1.568768927556818 3.3787286931818175 1.5847490411931815 Q 3.3787286931818175 1.5735629616477271 3.385786576704545 1.564374396306818 Q 3.392844460227272 1.5551858309659088 3.403764204545454 1.5551858309659088 Q 3.411754261363636 1.5551858309659088 3.4178799715909087 1.559979865056818 Q 3.424005681818181 1.5647738991477271 3.425071022727272 1.5727639559659088 L 3.426935369318181 1.6784990411931815 Q 3.426935369318181 1.6899514559659088 3.4200106534090904 1.6951449928977271 Q 3.4130859374999996 1.7003385298295453 3.4024325284090904 1.7003385298295453 Q 3.393110795454545 1.7003385298295453 3.3871182528409087 1.6963435014204542 Q 3.381125710227272 1.6923484730113634 3.380060369318181 1.6835594105113634 L 3.3789950284090904 1.6526645241477271 Q 3.375532670454545 1.6225686434659088 3.345969460227272 1.609784552556818 Q 3.3164062499999996 1.5970004616477271 3.2823153409090904 1.5970004616477271 L 3.2823153409090904 1.5970004616477271 M 3.724431818181818 2.024734836647727 Q 3.6445312499999996 2.024734836647727 3.5936612215909087 1.980390021306818 Q 3.542791193181818 1.9360452059659088 3.542791193181818 1.8572099786931815 L 3.542791193181818 1.6084528764204542 L 3.5025745738636362 1.6084528764204542 Q 3.4924538352272725 1.6084528764204542 3.4879261363636362 1.6011286576704542 Q 3.4833984374999996 1.5938044389204542 3.4833984374999996 1.5839500355113634 Q 3.4833984374999996 1.5751609730113634 3.488591974431818 1.5683694247159088 Q 3.4937855113636362 1.5615778764204542 3.5031072443181817 1.5615778764204542 L 3.658647017045454 1.5615778764204542 Q 3.6679687499999996 1.5615778764204542 3.6730291193181817 1.5683694247159088 Q 3.6780894886363633 1.5751609730113634 3.6780894886363633 1.5839500355113634 Q 3.6780894886363633 1.5938044389204542 3.6736949573863633 1.6011286576704542 Q 3.6693004261363633 1.6084528764204542 3.6591796874999996 1.6084528764204542 L 3.605113636363636 1.6084528764204542 L 3.605113636363636 1.8572099786931815 Q 3.605113636363636 1.9139393821022725 3.6361416903409087 1.9455001065340907 Q 3.6671697443181817 1.9770608309659088 3.724431818181818 1.9770608309659088 Q 3.7766335227272725 1.9770608309659088 3.807927911931818 1.9435025923295453 Q 3.8392223011363633 1.9099443536931815 3.8392223011363633 1.857742649147727 L 3.8392223011363633 1.6084528764204542 L 3.7883522727272725 1.6084528764204542 Q 3.7782315340909087 1.6084528764204542 3.7737038352272725 1.6011286576704542 Q 3.769176136363636 1.5938044389204542 3.769176136363636 1.5839500355113634 Q 3.769176136363636 1.5751609730113634 3.774369673295454 1.5683694247159088 Q 3.7795632102272725 1.5615778764204542 3.788884943181818 1.5615778764204542 L 3.936168323863636 1.5615778764204542 Q 3.9454900568181817 1.5615778764204542 3.9506835937499996 1.5683694247159088 Q 3.955877130681818 1.5751609730113634 3.955877130681818 1.5839500355113634 Q 3.955877130681818 1.5938044389204542 3.9513494318181817 1.6011286576704542 Q 3.946821732954545 1.6084528764204542 3.9367009943181817 1.6084528764204542 L 3.890358664772727 1.6084528764204542 L 3.890358664772727 1.857742649147727 Q 3.890358664772727 1.9317838423295453 3.844282670454545 1.978259339488636 Q 3.7982066761363633 2.024734836647727 3.724431818181818 2.024734836647727 L 3.724431818181818 2.024734836647727 M 3.9886363636363633 1.9957042968749996 Q 3.9886363636363633 1.9858498934659088 3.9930308948863633 1.9785256747159088 Q 3.9974254261363633 1.9712014559659088 4.0075461647727275 1.9712014559659088 L 4.0725319602272725 1.9712014559659088 L 4.0725319602272725 1.6084528764204542 L 4.0075461647727275 1.6084528764204542 Q 3.9974254261363633 1.6084528764204542 3.9930308948863633 1.6011286576704542 Q 3.9886363636363633 1.5938044389204542 3.9886363636363633 1.5839500355113634 Q 3.9886363636363633 1.5751609730113634 3.9936967329545454 1.5683694247159088 Q 3.998757102272727 1.5615778764204542 4.0080788352272725 1.5615778764204542 L 4.199041193181818 1.5615778764204542 Q 4.208362926136363 1.5615778764204542 4.213556463068182 1.5683694247159088 Q 4.21875 1.5751609730113634 4.21875 1.5839500355113634 Q 4.21875 1.5938044389204542 4.214222301136363 1.6011286576704542 Q 4.2096946022727275 1.6084528764204542 4.199573863636363 1.6084528764204542 L 4.134854403409091 1.6084528764204542 L 4.134854403409091 1.9712014559659088 L 4.199573863636363 1.9712014559659088 Q 4.2096946022727275 1.9712014559659088 4.214222301136363 1.9785256747159088 Q 4.21875 1.9858498934659088 4.21875 1.9957042968749996 Q 4.21875 2.0044933593749996 4.213556463068182 2.011284907670454 Q 4.208362926136363 2.018076455965909 4.199041193181818 2.018076455965909 L 4.0080788352272725 2.018076455965909 Q 3.998757102272727 2.018076455965909 3.9936967329545454 2.011284907670454 Q 3.9886363636363633 2.0044933593749996 3.9886363636363633 1.9957042968749996 L 3.9886363636363633 1.9957042968749996 M 4.267223011363637 1.7027355468749996 Q 4.258433948863637 1.7027355468749996 4.253773082386364 1.6968761718749996 Q 4.249112215909091 1.6910167968749996 4.249112215909091 1.6814287286931815 L 4.253107244318182 1.5823520241477271 Q 4.253373579545455 1.5719649502840907 4.2568359375 1.5667714133522725 Q 4.260298295454546 1.5615778764204542 4.269353693181818 1.5615778764204542 L 4.653409090909091 1.5615778764204542 Q 4.661931818181818 1.5615778764204542 4.665660511363637 1.5669045809659088 Q 4.669389204545455 1.5722312855113634 4.6696555397727275 1.5823520241477271 L 4.673650568181818 1.6814287286931815 Q 4.673650568181818 1.6910167968749996 4.668989701704546 1.6968761718749996 Q 4.6643288352272725 1.7027355468749996 4.6555397727272725 1.7027355468749996 Q 4.6462180397727275 1.7027355468749996 4.640491832386363 1.6987405184659088 Q 4.634765625 1.694745490056818 4.633700284090909 1.6848910866477271 L 4.625443892045455 1.6084528764204542 L 4.489612926136364 1.6084528764204542 L 4.489612926136364 1.9712014559659088 L 4.560191761363637 1.9712014559659088 Q 4.5703125 1.9712014559659088 4.57470703125 1.9785256747159088 Q 4.5791015625 1.9858498934659088 4.5791015625 1.9957042968749996 Q 4.5791015625 2.0044933593749996 4.574041193181818 2.011284907670454 Q 4.568980823863637 2.018076455965909 4.559659090909091 2.018076455965909 L 4.357776988636364 2.018076455965909 Q 4.348455255681818 2.018076455965909 4.34326171875 2.011284907670454 Q 4.338068181818182 2.0044933593749996 4.338068181818182 1.9957042968749996 Q 4.338068181818182 1.9858498934659088 4.342595880681818 1.9785256747159088 Q 4.347123579545455 1.9712014559659088 4.357244318181818 1.9712014559659088 L 4.427556818181818 1.9712014559659088 L 4.427556818181818 1.6084528764204542 L 4.297052556818182 1.6084528764204542 L 4.2890625 1.6848910866477271 Q 4.287997159090909 1.6950118252840907 4.282270951704546 1.6988736860795453 Q 4.276544744318182 1.7027355468749996 4.267223011363637 1.7027355468749996 L 4.267223011363637 1.7027355468749996 M 5.070490056818182 2.018076455965909 Q 5.0798117897727275 2.018076455965909 5.085005326704546 2.011284907670454 Q 5.090198863636364 2.0044933593749996 5.090198863636364 1.9957042968749996 Q 5.090198863636364 1.9858498934659088 5.0856711647727275 1.9785256747159088 Q 5.081143465909091 1.9712014559659088 5.0710227272727275 1.9712014559659088 L 4.989790482954546 1.9712014559659088 L 4.989790482954546 1.8092696377840907 L 5.080344460227273 1.8092696377840907 L 5.093927556818182 1.858807990056818 Q 5.096058238636364 1.8662653764204542 5.101518110795455 1.8715920809659088 Q 5.106977982954546 1.8769187855113634 5.115234375 1.8769187855113634 Q 5.124289772727273 1.8769187855113634 5.129083806818182 1.870926242897727 Q 5.133877840909091 1.8649337002840907 5.133877840909091 1.8556119673295453 L 5.130149147727273 1.7890281605113634 L 5.133877840909091 1.7245750355113634 Q 5.133877840909091 1.715253302556818 5.129083806818182 1.7092607599431815 Q 5.124289772727273 1.7032682173295453 5.115234375 1.7032682173295453 Q 5.106977982954546 1.7032682173295453 5.101518110795455 1.7085949218749996 Q 5.096058238636364 1.7139216264204542 5.093927556818182 1.7213790127840907 L 5.080344460227273 1.770917365056818 L 4.989790482954546 1.770917365056818 L 4.989790482954546 1.6084528764204542 L 5.222833806818182 1.6084528764204542 L 5.246271306818182 1.6766346946022725 Q 5.2497336647727275 1.6848910866477271 5.256658380681818 1.6908836292613634 Q 5.263583096590909 1.6968761718749996 5.2734375 1.6968761718749996 Q 5.2819602272727275 1.6968761718749996 5.287553267045455 1.6914162997159088 Q 5.293146306818182 1.685956427556818 5.293146306818182 1.677167365056818 Q 5.293146306818182 1.675036683238636 5.292746803977273 1.6723733309659088 Q 5.292347301136364 1.6697099786931815 5.291548295454546 1.6667802911931815 L 5.271306818181818 1.5823520241477271 Q 5.268110795454546 1.5730302911931815 5.263583096590909 1.567304083806818 Q 5.259055397727273 1.5615778764204542 5.249467329545455 1.5615778764204542 L 4.86328125 1.5615778764204542 Q 4.853959517045455 1.5615778764204542 4.848765980113637 1.5683694247159088 Q 4.843572443181818 1.5751609730113634 4.843572443181818 1.5839500355113634 Q 4.843572443181818 1.5938044389204542 4.848100142045455 1.6011286576704542 Q 4.852627840909091 1.6084528764204542 4.862748579545455 1.6084528764204542 L 4.927734375 1.6084528764204542 L 4.927734375 1.9712014559659088 L 4.840909090909091 1.9712014559659088 Q 4.8307883522727275 1.9712014559659088 4.826260653409091 1.9785256747159088 Q 4.821732954545455 1.9858498934659088 4.821732954545455 1.9957042968749996 Q 4.821732954545455 2.0044933593749996 4.826926491477273 2.011284907670454 Q 4.832120028409091 2.018076455965909 4.841441761363637 2.018076455965909 L 5.070490056818182 2.018076455965909 M 5.546697443181818 2.024734836647727 Q 5.4425603693181825 2.024734836647727 5.376242897727273 1.9609475497159088 Q 5.309925426136364 1.8971602627840907 5.309925426136364 1.7916915127840907 Q 5.309925426136364 1.685956427556818 5.376242897727273 1.6204379616477271 Q 5.4425603693181825 1.554919495738636 5.546697443181818 1.554919495738636 Q 5.652166193181818 1.554919495738636 5.718883167613637 1.6204379616477271 Q 5.785600142045455 1.685956427556818 5.785600142045455 1.7916915127840907 Q 5.785600142045455 1.8971602627840907 5.718616832386364 1.9609475497159088 Q 5.651633522727273 2.024734836647727 5.546697443181818 2.024734836647727 L 5.546697443181818 2.024734836647727 M 5.544300426136364 1.6052568536931815 Q 5.464932528409092 1.6052568536931815 5.420720880681818 1.658124396306818 Q 5.376509232954546 1.7109919389204542 5.376509232954546 1.7916915127840907 Q 5.376509232954546 1.872391086647727 5.421919389204546 1.9233942826704542 Q 5.467329545454546 1.9743974786931815 5.548828125000001 1.9743974786931815 Q 5.628462357954546 1.9743974786931815 5.6740056818181825 1.924060120738636 Q 5.719549005681818 1.8737227627840907 5.719549005681818 1.792224183238636 Q 5.719549005681818 1.7099265980113634 5.672807173295455 1.6575917258522725 Q 5.626065340909092 1.6052568536931815 5.544300426136364 1.6052568536931815 L 5.544300426136364 1.6052568536931815 M 6.008256392045455 1.7671886718749996 Q 6.068980823863637 1.7671886718749996 6.115323153409092 1.756668430397727 Q 6.161665482954546 1.7461481889204542 6.161665482954546 1.6880871093749996 Q 6.161665482954546 1.6289606889204542 6.109596946022728 1.6187067826704542 Q 6.05752840909091 1.6084528764204542 5.998401988636364 1.6084528764204542 L 5.959250710227273 1.6084528764204542 L 5.959250710227273 1.7671886718749996 L 6.008256392045455 1.7671886718749996 M 6.226384943181819 1.6854237571022725 Q 6.226384943181819 1.7397561434659088 6.190962357954546 1.7642589843749996 Q 6.155539772727273 1.7887618252840907 6.103870738636364 1.7978172230113634 Q 6.129172585227273 1.809003302556818 6.148082386363637 1.8271140980113634 Q 6.166992187500001 1.8452248934659088 6.178977272727273 1.874255433238636 L 6.2189275568181825 1.970935120738636 L 6.258078835227273 1.970935120738636 Q 6.274058948863637 1.970935120738636 6.2804509943181825 1.9765281605113634 Q 6.286843039772728 1.9821212002840907 6.286843039772728 1.9957042968749996 Q 6.286843039772728 2.0106190696022725 6.278852982954546 2.014480930397727 Q 6.270862926136364 2.0183427911931817 6.258345170454546 2.0183427911931817 L 6.1427556818181825 2.018076455965909 Q 6.133433948863637 2.018076455965909 6.128240411931819 2.011284907670454 Q 6.123046875000001 2.0044933593749996 6.123046875000001 1.9957042968749996 Q 6.123046875000001 1.9858498934659088 6.127574573863637 1.9783925071022723 Q 6.132102272727273 1.970935120738636 6.142223011363637 1.970935120738636 L 6.155273437500001 1.970935120738636 L 6.125443892045455 1.8955622514204542 Q 6.1134588068181825 1.865466370738636 6.086425781250001 1.8400313565340907 Q 6.059392755681819 1.8145963423295453 6.0197088068181825 1.8145963423295453 L 5.959250710227273 1.8145963423295453 L 5.959250710227273 1.970935120738636 L 6.029563210227273 1.970935120738636 Q 6.039683948863637 1.970935120738636 6.044211647727273 1.9783925071022723 Q 6.04873934659091 1.9858498934659088 6.04873934659091 1.9957042968749996 Q 6.04873934659091 2.0044933593749996 6.043545809659092 2.011284907670454 Q 6.038352272727273 2.018076455965909 6.029030539772728 2.018076455965909 L 5.8380681818181825 2.018076455965909 Q 5.828746448863637 2.018076455965909 5.823552911931819 2.011284907670454 Q 5.818359375000001 2.0044933593749996 5.818359375000001 1.9957042968749996 Q 5.818359375000001 1.9858498934659088 5.822887073863637 1.9783925071022723 Q 5.827414772727273 1.970935120738636 5.837535511363637 1.970935120738636 L 5.896928267045455 1.970935120738636 L 5.896928267045455 1.6084528764204542 L 5.848455255681819 1.6084528764204542 Q 5.838334517045455 1.6084528764204542 5.833806818181819 1.6011286576704542 Q 5.8292791193181825 1.5938044389204542 5.8292791193181825 1.5839500355113634 Q 5.8292791193181825 1.5751609730113634 5.834472656250001 1.5683694247159088 Q 5.839666193181819 1.5615778764204542 5.848987926136364 1.5615778764204542 L 6.006658380681819 1.5615778764204542 Q 6.093217329545455 1.5615778764204542 6.159801136363637 1.5808871803977271 Q 6.226384943181819 1.6001964843749996 6.226384943181819 1.6854237571022725 L 6.226384943181819 1.6854237571022725 M 6.852539062500001 1.787430149147727 Q 6.852539062500001 1.7016702059659088 6.801269531250001 1.6550615411931815 Q 6.750000000000001 1.6084528764204542 6.663707386363637 1.6084528764204542 L 6.587535511363637 1.6084528764204542 L 6.587535511363637 1.9712014559659088 Q 6.5968572443181825 1.9717341264204542 6.605912642045455 1.972000461647727 Q 6.6149680397727275 1.9722667968749996 6.624023437500001 1.9722667968749996 Q 6.724964488636364 1.9722667968749996 6.7887517755681825 1.9315175071022725 Q 6.852539062500001 1.8907682173295453 6.852539062500001 1.787430149147727 L 6.852539062500001 1.787430149147727 M 6.916992187500001 1.787430149147727 Q 6.916992187500001 1.899823615056818 6.8429509943181825 1.9589500355113634 Q 6.768909801136364 2.018076455965909 6.656250000000001 2.018076455965909 L 6.454367897727273 2.018076455965909 Q 6.4450461647727275 2.018076455965909 6.43985262784091 2.011284907670454 Q 6.434659090909092 2.0044933593749996 6.434659090909092 1.9957042968749996 Q 6.434659090909092 1.9858498934659088 6.4391867897727275 1.9785256747159088 Q 6.443714488636364 1.9712014559659088 6.4538352272727275 1.9712014559659088 L 6.525213068181819 1.9712014559659088 L 6.525213068181819 1.6084528764204542 L 6.471147017045455 1.6084528764204542 Q 6.461026278409092 1.6084528764204542 6.456631747159092 1.6011286576704542 Q 6.452237215909092 1.5938044389204542 6.452237215909092 1.5839500355113634 Q 6.452237215909092 1.5751609730113634 6.45743075284091 1.5683694247159088 Q 6.4626242897727275 1.5615778764204542 6.471946022727273 1.5615778764204542 L 6.656250000000001 1.5615778764204542 Q 6.771306818181818 1.5615778764204542 6.84414950284091 1.6176414417613634 Q 6.916992187500001 1.6737050071022725 6.916992187500001 1.787430149147727 L 6.916992187500001 1.787430149147727 M 6.959872159090909 1.9957042968749996 Q 6.959872159090909 1.9858498934659088 6.964266690340909 1.9785256747159088 Q 6.968661221590909 1.9712014559659088 6.978781960227273 1.9712014559659088 L 7.043767755681818 1.9712014559659088 L 7.043767755681818 1.6084528764204542 L 6.978781960227273 1.6084528764204542 Q 6.968661221590909 1.6084528764204542 6.964266690340909 1.6011286576704542 Q 6.959872159090909 1.5938044389204542 6.959872159090909 1.5839500355113634 Q 6.959872159090909 1.5751609730113634 6.964932528409091 1.5683694247159088 Q 6.969992897727273 1.5615778764204542 6.979314630681818 1.5615778764204542 L 7.170276988636364 1.5615778764204542 Q 7.179598721590909 1.5615778764204542 7.1847922585227275 1.5683694247159088 Q 7.189985795454546 1.5751609730113634 7.189985795454546 1.5839500355113634 Q 7.189985795454546 1.5938044389204542 7.185458096590909 1.6011286576704542 Q 7.180930397727273 1.6084528764204542 7.170809659090909 1.6084528764204542 L 7.106090198863637 1.6084528764204542 L 7.106090198863637 1.9712014559659088 L 7.170809659090909 1.9712014559659088 Q 7.180930397727273 1.9712014559659088 7.185458096590909 1.9785256747159088 Q 7.189985795454546 1.9858498934659088 7.189985795454546 1.9957042968749996 Q 7.189985795454546 2.0044933593749996 7.1847922585227275 2.011284907670454 Q 7.179598721590909 2.018076455965909 7.170276988636364 2.018076455965909 L 6.979314630681818 2.018076455965909 Q 6.969992897727273 2.018076455965909 6.964932528409091 2.011284907670454 Q 6.959872159090909 2.0044933593749996 6.959872159090909 1.9957042968749996 L 6.959872159090909 1.9957042968749996 M 7.470703125000001 1.9743974786931815 Q 7.533025568181818 1.9743974786931815 7.582297585227273 1.9520253196022725 Q 7.6315696022727275 1.9296531605113634 7.6315696022727275 1.866531711647727 L 7.6315696022727275 1.8327071377840907 L 7.591086647727273 1.8327071377840907 Q 7.5817649147727275 1.8327071377840907 7.576704545454546 1.825915589488636 Q 7.571644176136364 1.8191240411931815 7.571644176136364 1.8103349786931815 Q 7.571644176136364 1.8004805752840907 7.576038707386364 1.7931563565340907 Q 7.580433238636364 1.7858321377840907 7.5905539772727275 1.7858321377840907 L 7.7013494318181825 1.7858321377840907 Q 7.711470170454546 1.7858321377840907 7.7159978693181825 1.7931563565340907 Q 7.720525568181818 1.8004805752840907 7.720525568181818 1.8103349786931815 Q 7.720525568181818 1.8191240411931815 7.715332031250001 1.825915589488636 Q 7.7101384943181825 1.8327071377840907 7.700816761363637 1.8327071377840907 L 7.6784446022727275 1.8327071377840907 L 7.6784446022727275 1.9989003196022723 Q 7.6784446022727275 2.009021058238636 7.6711203835227275 2.0135487571022725 Q 7.6637961647727275 2.018076455965909 7.653941761363637 2.018076455965909 Q 7.645152698863637 2.018076455965909 7.6383611505681825 2.0128829190340904 Q 7.6315696022727275 2.0076893821022725 7.6315696022727275 1.998367649147727 L 7.6315696022727275 1.9656084161931815 Q 7.608398437500001 1.997302308238636 7.566450639204546 2.0110185724431817 Q 7.524502840909092 2.024734836647727 7.470703125000001 2.024734836647727 Q 7.365500710227273 2.024734836647727 7.298650568181818 1.9609475497159088 Q 7.231800426136364 1.8971602627840907 7.231800426136364 1.7916915127840907 Q 7.231800426136364 1.6848910866477271 7.300648082386364 1.6199052911931815 Q 7.369495738636364 1.554919495738636 7.476029829545455 1.554919495738636 Q 7.524236505681818 1.554919495738636 7.559392755681818 1.5691684303977271 Q 7.594549005681818 1.583417365056818 7.6222478693181825 1.6084528764204542 L 7.6222478693181825 1.5807540127840907 Q 7.6222478693181825 1.5706332741477271 7.6295720880681825 1.5661055752840907 Q 7.6368963068181825 1.5615778764204542 7.646750710227273 1.5615778764204542 Q 7.655539772727273 1.5615778764204542 7.6623313210227275 1.5667714133522725 Q 7.6691228693181825 1.5719649502840907 7.6691228693181825 1.581286683238636 L 7.6691228693181825 1.680896058238636 Q 7.6691228693181825 1.6902177911931815 7.6623313210227275 1.6954113281249996 Q 7.655539772727273 1.700604865056818 7.646750710227273 1.700604865056818 Q 7.637695312500001 1.700604865056818 7.633167613636364 1.6935469815340907 Q 7.6286399147727275 1.6864890980113634 7.624378551136364 1.6798307173295453 Q 7.599875710227273 1.6454734730113634 7.564053622159092 1.6253651633522725 Q 7.52823153409091 1.6052568536931815 7.476029829545455 1.6052568536931815 Q 7.3942649147727275 1.6052568536931815 7.347922585227273 1.6575917258522725 Q 7.301580255681818 1.7099265980113634 7.301580255681818 1.7916915127840907 Q 7.301580255681818 1.872391086647727 7.346191406250001 1.9233942826704542 Q 7.3908025568181825 1.9743974786931815 7.470703125000001 1.9743974786931815 L 7.470703125000001 1.9743974786931815 M 7.763139204545455 1.9957042968749996 Q 7.763139204545455 1.9858498934659088 7.767533735795455 1.9785256747159088 Q 7.771928267045455 1.9712014559659088 7.782049005681819 1.9712014559659088 L 7.847034801136364 1.9712014559659088 L 7.847034801136364 1.6084528764204542 L 7.782049005681819 1.6084528764204542 Q 7.771928267045455 1.6084528764204542 7.767533735795455 1.6011286576704542 Q 7.763139204545455 1.5938044389204542 7.763139204545455 1.5839500355113634 Q 7.763139204545455 1.5751609730113634 7.768199573863637 1.5683694247159088 Q 7.773259943181819 1.5615778764204542 7.782581676136364 1.5615778764204542 L 7.97354403409091 1.5615778764204542 Q 7.982865767045455 1.5615778764204542 7.988059303977273 1.5683694247159088 Q 7.993252840909092 1.5751609730113634 7.993252840909092 1.5839500355113634 Q 7.993252840909092 1.5938044389204542 7.988725142045455 1.6011286576704542 Q 7.984197443181819 1.6084528764204542 7.974076704545455 1.6084528764204542 L 7.9093572443181825 1.6084528764204542 L 7.9093572443181825 1.9712014559659088 L 7.974076704545455 1.9712014559659088 Q 7.984197443181819 1.9712014559659088 7.988725142045455 1.9785256747159088 Q 7.993252840909092 1.9858498934659088 7.993252840909092 1.9957042968749996 Q 7.993252840909092 2.0044933593749996 7.988059303977273 2.011284907670454 Q 7.982865767045455 2.018076455965909 7.97354403409091 2.018076455965909 L 7.782581676136364 2.018076455965909 Q 7.773259943181819 2.018076455965909 7.768199573863637 2.011284907670454 Q 7.763139204545455 2.0044933593749996 7.763139204545455 1.9957042968749996 L 7.763139204545455 1.9957042968749996 M 8.041725852272728 1.7027355468749996 Q 8.032936789772728 1.7027355468749996 8.028275923295455 1.6968761718749996 Q 8.023615056818183 1.6910167968749996 8.023615056818183 1.6814287286931815 L 8.027610085227273 1.5823520241477271 Q 8.027876420454547 1.5719649502840907 8.031338778409092 1.5667714133522725 Q 8.034801136363637 1.5615778764204542 8.04385653409091 1.5615778764204542 L 8.427911931818183 1.5615778764204542 Q 8.43643465909091 1.5615778764204542 8.440163352272728 1.5669045809659088 Q 8.443892045454547 1.5722312855113634 8.444158380681818 1.5823520241477271 L 8.44815340909091 1.6814287286931815 Q 8.44815340909091 1.6910167968749996 8.443492542613637 1.6968761718749996 Q 8.438831676136365 1.7027355468749996 8.430042613636365 1.7027355468749996 Q 8.420720880681818 1.7027355468749996 8.414994673295455 1.6987405184659088 Q 8.409268465909092 1.694745490056818 8.408203125000002 1.6848910866477271 L 8.399946732954547 1.6084528764204542 L 8.264115767045455 1.6084528764204542 L 8.264115767045455 1.9712014559659088 L 8.334694602272728 1.9712014559659088 Q 8.344815340909092 1.9712014559659088 8.349209872159092 1.9785256747159088 Q 8.353604403409092 1.9858498934659088 8.353604403409092 1.9957042968749996 Q 8.353604403409092 2.0044933593749996 8.34854403409091 2.011284907670454 Q 8.343483664772728 2.018076455965909 8.334161931818183 2.018076455965909 L 8.132279829545455 2.018076455965909 Q 8.12295809659091 2.018076455965909 8.117764559659092 2.011284907670454 Q 8.112571022727273 2.0044933593749996 8.112571022727273 1.9957042968749996 Q 8.112571022727273 1.9858498934659088 8.11709872159091 1.9785256747159088 Q 8.121626420454547 1.9712014559659088 8.13174715909091 1.9712014559659088 L 8.20205965909091 1.9712014559659088 L 8.20205965909091 1.6084528764204542 L 8.071555397727273 1.6084528764204542 L 8.063565340909092 1.6848910866477271 Q 8.062500000000002 1.6950118252840907 8.056773792613637 1.6988736860795453 Q 8.051047585227273 1.7027355468749996 8.041725852272728 1.7027355468749996 L 8.041725852272728 1.7027355468749996 M 8.45987215909091 1.9957042968749996 Q 8.45987215909091 1.9858498934659088 8.464399857954547 1.9785256747159088 Q 8.468927556818183 1.9712014559659088 8.479048295454547 1.9712014559659088 L 8.516068892045455 1.9712014559659088 L 8.692382812500002 1.5730302911931815 Q 8.696377840909092 1.563708558238636 8.704367897727273 1.5561180042613634 Q 8.712357954545455 1.5485274502840907 8.725142045454547 1.5485274502840907 Q 8.738458806818183 1.5485274502840907 8.74551669034091 1.556384339488636 Q 8.752574573863637 1.5642412286931815 8.756569602272728 1.5740956321022725 L 8.916637073863637 1.9712014559659088 L 8.964044744318183 1.9712014559659088 Q 8.974165482954547 1.9712014559659088 8.978560014204547 1.9785256747159088 Q 8.982954545454547 1.9858498934659088 8.982954545454547 1.9957042968749996 Q 8.982954545454547 2.0044933593749996 8.977894176136365 2.011284907670454 Q 8.972833806818183 2.018076455965909 8.963512073863637 2.018076455965909 L 8.791725852272728 2.018076455965909 Q 8.782404119318183 2.018076455965909 8.777210582386365 2.011284907670454 Q 8.772017045454547 2.0044933593749996 8.772017045454547 1.9957042968749996 Q 8.772017045454547 1.9858498934659088 8.776544744318183 1.9785256747159088 Q 8.781072443181818 1.9712014559659088 8.791193181818183 1.9712014559659088 L 8.84952059659091 1.9712014559659088 L 8.810102982954547 1.8670643821022725 L 8.617009943181818 1.8670643821022725 L 8.575195312500002 1.9712014559659088 L 8.624733664772728 1.9712014559659088 Q 8.634854403409092 1.9712014559659088 8.639382102272728 1.9785256747159088 Q 8.643909801136365 1.9858498934659088 8.643909801136365 1.9957042968749996 Q 8.643909801136365 2.0044933593749996 8.638716264204547 2.011284907670454 Q 8.633522727272728 2.018076455965909 8.624200994318183 2.018076455965909 L 8.479580965909092 2.018076455965909 Q 8.470259232954547 2.018076455965909 8.465065696022728 2.011284907670454 Q 8.45987215909091 2.0044933593749996 8.45987215909091 1.9957042968749996 L 8.45987215909091 1.9957042968749996 M 8.633522727272728 1.8260487571022725 L 8.794921875000002 1.8260487571022725 L 8.716885653409092 1.6188399502840907 L 8.633522727272728 1.8260487571022725 M 9.235440340909092 1.5839500355113634 Q 9.235440340909092 1.5938044389204542 9.230912642045455 1.6011286576704542 Q 9.226384943181818 1.6084528764204542 9.216264204545455 1.6084528764204542 L 9.156871448863637 1.6084528764204542 L 9.156871448863637 1.9712014559659088 L 9.344371448863637 1.9712014559659088 Q 9.367009943181818 1.9712014559659088 9.383389559659092 1.9648094105113634 Q 9.399769176136365 1.958417365056818 9.401633522727273 1.9373768821022725 L 9.409357244318182 1.862536683238636 Q 9.410422585227273 1.853747620738636 9.416148792613637 1.8497525923295453 Q 9.421875 1.8457575639204542 9.431196732954547 1.8457575639204542 Q 9.441051136363637 1.8457575639204542 9.448375355113637 1.8510842684659088 Q 9.455699573863637 1.8564109730113634 9.455699573863637 1.8670643821022725 L 9.443714488636365 1.9999656605113634 Q 9.442915482954547 2.0074230468749996 9.438920454545455 2.012749751420454 Q 9.434925426136365 2.018076455965909 9.427468039772728 2.018076455965909 L 9.014914772727273 2.018076455965909 Q 9.005593039772728 2.018076455965909 9.00039950284091 2.011284907670454 Q 8.995205965909092 2.0044933593749996 8.995205965909092 1.9957042968749996 Q 8.995205965909092 1.9858498934659088 8.999733664772728 1.9785256747159088 Q 9.004261363636365 1.9712014559659088 9.014382102272728 1.9712014559659088 L 9.094549005681818 1.9712014559659088 L 9.094549005681818 1.6084528764204542 L 9.030894886363637 1.6084528764204542 Q 9.020774147727273 1.6084528764204542 9.016246448863637 1.6011286576704542 Q 9.01171875 1.5938044389204542 9.01171875 1.5839500355113634 Q 9.01171875 1.5751609730113634 9.016912286931818 1.5683694247159088 Q 9.022105823863637 1.5615778764204542 9.031427556818182 1.5615778764204542 L 9.21573153409091 1.5615778764204542 Q 9.225053267045455 1.5615778764204542 9.230246803977273 1.5683694247159088 Q 9.235440340909092 1.5751609730113634 9.235440340909092 1.5839500355113634 L 9.235440340909092 1.5839500355113634 M 9.624289772727273 1.9957042968749996 Q 9.624289772727273 1.9858498934659088 9.628684303977273 1.9785256747159088 Q 9.633078835227273 1.9712014559659088 9.643199573863637 1.9712014559659088 L 9.708185369318183 1.9712014559659088 L 9.708185369318183 1.6084528764204542 L 9.643199573863637 1.6084528764204542 Q 9.633078835227273 1.6084528764204542 9.628684303977273 1.6011286576704542 Q 9.624289772727273 1.5938044389204542 9.624289772727273 1.5839500355113634 Q 9.624289772727273 1.5751609730113634 9.629350142045455 1.5683694247159088 Q 9.634410511363637 1.5615778764204542 9.643732244318183 1.5615778764204542 L 9.834694602272728 1.5615778764204542 Q 9.844016335227273 1.5615778764204542 9.849209872159092 1.5683694247159088 Q 9.85440340909091 1.5751609730113634 9.85440340909091 1.5839500355113634 Q 9.85440340909091 1.5938044389204542 9.849875710227273 1.6011286576704542 Q 9.845348011363637 1.6084528764204542 9.835227272727273 1.6084528764204542 L 9.7705078125 1.6084528764204542 L 9.7705078125 1.9712014559659088 L 9.835227272727273 1.9712014559659088 Q 9.845348011363637 1.9712014559659088 9.849875710227273 1.9785256747159088 Q 9.85440340909091 1.9858498934659088 9.85440340909091 1.9957042968749996 Q 9.85440340909091 2.0044933593749996 9.849209872159092 2.011284907670454 Q 9.844016335227273 2.018076455965909 9.834694602272728 2.018076455965909 L 9.643732244318183 2.018076455965909 Q 9.634410511363637 2.018076455965909 9.629350142045455 2.011284907670454 Q 9.624289772727273 2.0044933593749996 9.624289772727273 1.9957042968749996 L 9.624289772727273 1.9957042968749996 M 9.885298295454547 1.5839500355113634 Q 9.885298295454547 1.5751609730113634 9.890491832386365 1.5683694247159088 Q 9.895685369318183 1.5615778764204542 9.905007102272728 1.5615778764204542 L 10.028320312500002 1.5615778764204542 Q 10.034712357954547 1.5615778764204542 10.038174715909092 1.563708558238636 Q 10.041637073863637 1.565839240056818 10.044034090909092 1.5708996093749996 L 10.27814275568182 1.904617649147727 L 10.27814275568182 1.6084528764204542 L 10.230202414772728 1.6084528764204542 Q 10.220081676136365 1.6084528764204542 10.215553977272728 1.6011286576704542 Q 10.211026278409092 1.5938044389204542 10.211026278409092 1.5839500355113634 Q 10.211026278409092 1.5751609730113634 10.21621981534091 1.5683694247159088 Q 10.221413352272728 1.5615778764204542 10.230735085227273 1.5615778764204542 L 10.385742187500002 1.5615778764204542 Q 10.395063920454547 1.5615778764204542 10.400124289772728 1.5683694247159088 Q 10.40518465909091 1.5751609730113634 10.40518465909091 1.5839500355113634 Q 10.40518465909091 1.5938044389204542 10.40079012784091 1.6011286576704542 Q 10.39639559659091 1.6084528764204542 10.386274857954547 1.6084528764204542 L 10.333274147727273 1.6084528764204542 L 10.333274147727273 2.003960688920454 Q 10.333274147727273 2.014081427556818 10.326216264204547 2.021006143465909 Q 10.31915838068182 2.0279308593749996 10.309303977272728 2.0279308593749996 Q 10.300781250000002 2.0279308593749996 10.294788707386365 2.0238026633522725 Q 10.288796164772728 2.019674467329545 10.284801136363637 2.013815092329545 L 10.013671875000002 1.630292365056818 L 10.013671875000002 1.9712014559659088 L 10.060546875000002 1.9712014559659088 Q 10.070667613636365 1.9712014559659088 10.075195312500002 1.9785256747159088 Q 10.079723011363637 1.9858498934659088 10.079723011363637 1.9957042968749996 Q 10.079723011363637 2.0044933593749996 10.07452947443182 2.011284907670454 Q 10.069335937500002 2.018076455965909 10.060014204545455 2.018076455965909 L 9.905007102272728 2.018076455965909 Q 9.895685369318183 2.018076455965909 9.890491832386365 2.011284907670454 Q 9.885298295454547 2.0044933593749996 9.885298295454547 1.9957042968749996 Q 9.885298295454547 1.9858498934659088 9.889825994318183 1.9785256747159088 Q 9.89435369318182 1.9712014559659088 9.904474431818183 1.9712014559659088 L 9.957475142045455 1.9712014559659088 L 9.957475142045455 1.6084528764204542 L 9.904474431818183 1.6084528764204542 Q 9.89435369318182 1.6084528764204542 9.889825994318183 1.6011286576704542 Q 9.885298295454547 1.5938044389204542 9.885298295454547 1.5839500355113634 L 9.885298295454547 1.5839500355113634 M 10.444602272727273 1.7027355468749996 Q 10.435813210227273 1.7027355468749996 10.43115234375 1.6968761718749996 Q 10.426491477272728 1.6910167968749996 10.426491477272728 1.6814287286931815 L 10.430486505681818 1.5823520241477271 Q 10.430752840909092 1.5719649502840907 10.434215198863637 1.5667714133522725 Q 10.437677556818182 1.5615778764204542 10.446732954545455 1.5615778764204542 L 10.830788352272728 1.5615778764204542 Q 10.839311079545455 1.5615778764204542 10.843039772727273 1.5669045809659088 Q 10.846768465909092 1.5722312855113634 10.847034801136363 1.5823520241477271 L 10.851029829545455 1.6814287286931815 Q 10.851029829545455 1.6910167968749996 10.846368963068182 1.6968761718749996 Q 10.84170809659091 1.7027355468749996 10.83291903409091 1.7027355468749996 Q 10.823597301136363 1.7027355468749996 10.81787109375 1.6987405184659088 Q 10.812144886363637 1.694745490056818 10.811079545454547 1.6848910866477271 L 10.802823153409092 1.6084528764204542 L 10.6669921875 1.6084528764204542 L 10.6669921875 1.9712014559659088 L 10.737571022727273 1.9712014559659088 Q 10.747691761363637 1.9712014559659088 10.752086292613637 1.9785256747159088 Q 10.756480823863637 1.9858498934659088 10.756480823863637 1.9957042968749996 Q 10.756480823863637 2.0044933593749996 10.751420454545455 2.011284907670454 Q 10.746360085227273 2.018076455965909 10.737038352272728 2.018076455965909 L 10.53515625 2.018076455965909 Q 10.525834517045455 2.018076455965909 10.520640980113637 2.011284907670454 Q 10.515447443181818 2.0044933593749996 10.515447443181818 1.9957042968749996 Q 10.515447443181818 1.9858498934659088 10.519975142045455 1.9785256747159088 Q 10.524502840909092 1.9712014559659088 10.534623579545455 1.9712014559659088 L 10.604936079545455 1.9712014559659088 L 10.604936079545455 1.6084528764204542 L 10.474431818181818 1.6084528764204542 L 10.466441761363637 1.6848910866477271 Q 10.465376420454547 1.6950118252840907 10.459650213068182 1.6988736860795453 Q 10.453924005681818 1.7027355468749996 10.444602272727273 1.7027355468749996 L 10.444602272727273 1.7027355468749996 M 11.171963778409092 1.8452248934659088 Q 11.171963778409092 1.8545466264204542 11.167169744318182 1.8605391690340907 Q 11.162375710227273 1.866531711647727 11.1533203125 1.866531711647727 Q 11.145063920454547 1.866531711647727 11.139604048295455 1.8612050071022725 Q 11.134144176136363 1.855878302556818 11.132013494318182 1.8484209161931815 L 11.118430397727273 1.7988825639204542 L 11.029474431818182 1.7988825639204542 L 11.029474431818182 1.9712014559659088 L 11.2646484375 1.9712014559659088 L 11.295543323863637 1.8833108309659088 Q 11.299272017045455 1.8750544389204542 11.305930397727273 1.869061896306818 Q 11.312588778409092 1.8630693536931815 11.322975852272728 1.8630693536931815 Q 11.331764914772728 1.8630693536931815 11.337091619318182 1.868396058238636 Q 11.342418323863637 1.8737227627840907 11.342418323863637 1.8827781605113634 Q 11.342418323863637 1.8854415127840907 11.342018821022728 1.888104865056818 Q 11.341619318181818 1.8907682173295453 11.3408203125 1.8931652343749996 L 11.324041193181818 1.997302308238636 Q 11.321377840909092 2.006890376420454 11.316583806818182 2.0124834161931817 Q 11.311789772727273 2.018076455965909 11.302201704545455 2.018076455965909 L 10.892045454545455 2.018076455965909 Q 10.88272372159091 2.018076455965909 10.877530184659092 2.011284907670454 Q 10.872336647727273 2.0044933593749996 10.872336647727273 1.9957042968749996 Q 10.872336647727273 1.9858498934659088 10.87686434659091 1.9785256747159088 Q 10.881392045454547 1.9712014559659088 10.89151278409091 1.9712014559659088 L 10.967418323863637 1.9712014559659088 L 10.967418323863637 1.6084528764204542 L 10.918678977272728 1.6084528764204542 Q 10.908558238636363 1.6084528764204542 10.904163707386363 1.6011286576704542 Q 10.899769176136363 1.5938044389204542 10.899769176136363 1.5839500355113634 Q 10.899769176136363 1.5751609730113634 10.904829545454547 1.5683694247159088 Q 10.909889914772728 1.5615778764204542 10.919211647727273 1.5615778764204542 L 11.291281960227273 1.5615778764204542 Q 11.300870028409092 1.5615778764204542 11.305397727272728 1.567304083806818 Q 11.309925426136363 1.5730302911931815 11.313121448863637 1.5823520241477271 L 11.338689630681818 1.6667802911931815 Q 11.339488636363637 1.6697099786931815 11.339888139204547 1.6723733309659088 Q 11.340287642045455 1.675036683238636 11.340287642045455 1.677167365056818 Q 11.340287642045455 1.685956427556818 11.334827769886363 1.6914162997159088 Q 11.329367897727273 1.6968761718749996 11.320845170454547 1.6968761718749996 Q 11.310990767045455 1.6968761718749996 11.303932883522728 1.6908836292613634 Q 11.296875 1.6848910866477271 11.293412642045455 1.6766346946022725 L 11.2646484375 1.6084528764204542 L 11.029474431818182 1.6084528764204542 L 11.029474431818182 1.7605302911931815 L 11.118430397727273 1.7605302911931815 L 11.132013494318182 1.7109919389204542 Q 11.134144176136363 1.703534552556818 11.139604048295455 1.6982078480113634 Q 11.145063920454547 1.6928811434659088 11.1533203125 1.6928811434659088 Q 11.162375710227273 1.6928811434659088 11.167169744318182 1.6988736860795453 Q 11.171963778409092 1.7048662286931815 11.171963778409092 1.714187961647727 L 11.16796875 1.778641086647727 L 11.171963778409092 1.8452248934659088 M 11.6162109375 1.5839500355113634 Q 11.6162109375 1.5938044389204542 11.611683238636363 1.6011286576704542 Q 11.607155539772727 1.6084528764204542 11.597034801136363 1.6084528764204542 L 11.537642045454545 1.6084528764204542 L 11.537642045454545 1.9712014559659088 L 11.725142045454545 1.9712014559659088 Q 11.747780539772727 1.9712014559659088 11.76416015625 1.9648094105113634 Q 11.780539772727273 1.958417365056818 11.782404119318182 1.9373768821022725 L 11.79012784090909 1.862536683238636 Q 11.791193181818182 1.853747620738636 11.796919389204545 1.8497525923295453 Q 11.802645596590908 1.8457575639204542 11.811967329545455 1.8457575639204542 Q 11.821821732954545 1.8457575639204542 11.829145951704545 1.8510842684659088 Q 11.836470170454545 1.8564109730113634 11.836470170454545 1.8670643821022725 L 11.824485085227273 1.9999656605113634 Q 11.823686079545455 2.0074230468749996 11.819691051136363 2.012749751420454 Q 11.815696022727273 2.018076455965909 11.808238636363637 2.018076455965909 L 11.395685369318182 2.018076455965909 Q 11.386363636363637 2.018076455965909 11.381170099431818 2.011284907670454 Q 11.3759765625 2.0044933593749996 11.3759765625 1.9957042968749996 Q 11.3759765625 1.9858498934659088 11.380504261363637 1.9785256747159088 Q 11.385031960227273 1.9712014559659088 11.395152698863637 1.9712014559659088 L 11.475319602272727 1.9712014559659088 L 11.475319602272727 1.6084528764204542 L 11.411665482954545 1.6084528764204542 Q 11.401544744318182 1.6084528764204542 11.397017045454545 1.6011286576704542 Q 11.392489346590908 1.5938044389204542 11.392489346590908 1.5839500355113634 Q 11.392489346590908 1.5751609730113634 11.397682883522727 1.5683694247159088 Q 11.402876420454545 1.5615778764204542 11.41219815340909 1.5615778764204542 L 11.596502130681818 1.5615778764204542 Q 11.605823863636363 1.5615778764204542 11.611017400568182 1.5683694247159088 Q 11.6162109375 1.5751609730113634 11.6162109375 1.5839500355113634 L 11.6162109375 1.5839500355113634 M 12.1083984375 1.5839500355113634 Q 12.1083984375 1.5938044389204542 12.103870738636363 1.6011286576704542 Q 12.099343039772727 1.6084528764204542 12.089222301136363 1.6084528764204542 L 12.029829545454545 1.6084528764204542 L 12.029829545454545 1.9712014559659088 L 12.217329545454545 1.9712014559659088 Q 12.239968039772727 1.9712014559659088 12.25634765625 1.9648094105113634 Q 12.272727272727273 1.958417365056818 12.274591619318182 1.9373768821022725 L 12.28231534090909 1.862536683238636 Q 12.283380681818182 1.853747620738636 12.289106889204545 1.8497525923295453 Q 12.294833096590908 1.8457575639204542 12.304154829545455 1.8457575639204542 Q 12.314009232954545 1.8457575639204542 12.321333451704545 1.8510842684659088 Q 12.328657670454545 1.8564109730113634 12.328657670454545 1.8670643821022725 L 12.316672585227273 1.9999656605113634 Q 12.315873579545455 2.0074230468749996 12.311878551136363 2.012749751420454 Q 12.307883522727273 2.018076455965909 12.300426136363637 2.018076455965909 L 11.887872869318182 2.018076455965909 Q 11.878551136363637 2.018076455965909 11.873357599431818 2.011284907670454 Q 11.8681640625 2.0044933593749996 11.8681640625 1.9957042968749996 Q 11.8681640625 1.9858498934659088 11.872691761363637 1.9785256747159088 Q 11.877219460227273 1.9712014559659088 11.887340198863637 1.9712014559659088 L 11.967507102272727 1.9712014559659088 L 11.967507102272727 1.6084528764204542 L 11.903852982954545 1.6084528764204542 Q 11.893732244318182 1.6084528764204542 11.889204545454545 1.6011286576704542 Q 11.884676846590908 1.5938044389204542 11.884676846590908 1.5839500355113634 Q 11.884676846590908 1.5751609730113634 11.889870383522727 1.5683694247159088 Q 11.895063920454545 1.5615778764204542 11.90438565340909 1.5615778764204542 L 12.088689630681818 1.5615778764204542 Q 12.098011363636363 1.5615778764204542 12.103204900568182 1.5683694247159088 Q 12.1083984375 1.5751609730113634 12.1083984375 1.5839500355113634 L 12.1083984375 1.5839500355113634 M 12.370472301136363 1.9957042968749996 Q 12.370472301136363 1.9858498934659088 12.374866832386363 1.9785256747159088 Q 12.379261363636363 1.9712014559659088 12.389382102272727 1.9712014559659088 L 12.454367897727273 1.9712014559659088 L 12.454367897727273 1.6084528764204542 L 12.389382102272727 1.6084528764204542 Q 12.379261363636363 1.6084528764204542 12.374866832386363 1.6011286576704542 Q 12.370472301136363 1.5938044389204542 12.370472301136363 1.5839500355113634 Q 12.370472301136363 1.5751609730113634 12.375532670454545 1.5683694247159088 Q 12.380593039772727 1.5615778764204542 12.389914772727273 1.5615778764204542 L 12.580877130681818 1.5615778764204542 Q 12.590198863636363 1.5615778764204542 12.595392400568182 1.5683694247159088 Q 12.6005859375 1.5751609730113634 12.6005859375 1.5839500355113634 Q 12.6005859375 1.5938044389204542 12.596058238636363 1.6011286576704542 Q 12.591530539772727 1.6084528764204542 12.581409801136363 1.6084528764204542 L 12.51669034090909 1.6084528764204542 L 12.51669034090909 1.9712014559659088 L 12.581409801136363 1.9712014559659088 Q 12.591530539772727 1.9712014559659088 12.596058238636363 1.9785256747159088 Q 12.6005859375 1.9858498934659088 12.6005859375 1.9957042968749996 Q 12.6005859375 2.0044933593749996 12.595392400568182 2.011284907670454 Q 12.590198863636363 2.018076455965909 12.580877130681818 2.018076455965909 L 12.389914772727273 2.018076455965909 Q 12.380593039772727 2.018076455965909 12.375532670454545 2.011284907670454 Q 12.370472301136363 2.0044933593749996 12.370472301136363 1.9957042968749996 L 12.370472301136363 1.9957042968749996 M 12.881303267045455 1.9743974786931815 Q 12.943625710227273 1.9743974786931815 12.992897727272727 1.9520253196022725 Q 13.042169744318182 1.9296531605113634 13.042169744318182 1.866531711647727 L 13.042169744318182 1.8327071377840907 L 13.001686789772727 1.8327071377840907 Q 12.992365056818182 1.8327071377840907 12.9873046875 1.825915589488636 Q 12.982244318181818 1.8191240411931815 12.982244318181818 1.8103349786931815 Q 12.982244318181818 1.8004805752840907 12.986638849431818 1.7931563565340907 Q 12.991033380681818 1.7858321377840907 13.001154119318182 1.7858321377840907 L 13.111949573863637 1.7858321377840907 Q 13.1220703125 1.7858321377840907 13.126598011363637 1.7931563565340907 Q 13.131125710227273 1.8004805752840907 13.131125710227273 1.8103349786931815 Q 13.131125710227273 1.8191240411931815 13.125932173295455 1.825915589488636 Q 13.120738636363637 1.8327071377840907 13.111416903409092 1.8327071377840907 L 13.089044744318182 1.8327071377840907 L 13.089044744318182 1.9989003196022723 Q 13.089044744318182 2.009021058238636 13.081720525568182 2.0135487571022725 Q 13.074396306818182 2.018076455965909 13.064541903409092 2.018076455965909 Q 13.055752840909092 2.018076455965909 13.048961292613637 2.0128829190340904 Q 13.042169744318182 2.0076893821022725 13.042169744318182 1.998367649147727 L 13.042169744318182 1.9656084161931815 Q 13.018998579545455 1.997302308238636 12.97705078125 2.0110185724431817 Q 12.935102982954545 2.024734836647727 12.881303267045455 2.024734836647727 Q 12.776100852272727 2.024734836647727 12.709250710227273 1.9609475497159088 Q 12.642400568181818 1.8971602627840907 12.642400568181818 1.7916915127840907 Q 12.642400568181818 1.6848910866477271 12.711248224431818 1.6199052911931815 Q 12.780095880681818 1.554919495738636 12.88662997159091 1.554919495738636 Q 12.934836647727273 1.554919495738636 12.969992897727273 1.5691684303977271 Q 13.005149147727273 1.583417365056818 13.032848011363637 1.6084528764204542 L 13.032848011363637 1.5807540127840907 Q 13.032848011363637 1.5706332741477271 13.040172230113637 1.5661055752840907 Q 13.047496448863637 1.5615778764204542 13.057350852272727 1.5615778764204542 Q 13.066139914772727 1.5615778764204542 13.072931463068182 1.5667714133522725 Q 13.079723011363637 1.5719649502840907 13.079723011363637 1.581286683238636 L 13.079723011363637 1.680896058238636 Q 13.079723011363637 1.6902177911931815 13.072931463068182 1.6954113281249996 Q 13.066139914772727 1.700604865056818 13.057350852272727 1.700604865056818 Q 13.048295454545455 1.700604865056818 13.043767755681818 1.6935469815340907 Q 13.039240056818182 1.6864890980113634 13.034978693181818 1.6798307173295453 Q 13.010475852272727 1.6454734730113634 12.974653764204545 1.6253651633522725 Q 12.938831676136363 1.6052568536931815 12.88662997159091 1.6052568536931815 Q 12.804865056818182 1.6052568536931815 12.758522727272727 1.6575917258522725 Q 12.712180397727273 1.7099265980113634 12.712180397727273 1.7916915127840907 Q 12.712180397727273 1.872391086647727 12.756791548295455 1.9233942826704542 Q 12.801402698863637 1.9743974786931815 12.881303267045455 1.9743974786931815 L 12.881303267045455 1.9743974786931815 M 13.463245738636363 1.8452248934659088 Q 13.463245738636363 1.8545466264204542 13.458451704545453 1.8605391690340907 Q 13.453657670454545 1.866531711647727 13.444602272727272 1.866531711647727 Q 13.436345880681818 1.866531711647727 13.430886008522727 1.8612050071022725 Q 13.425426136363635 1.855878302556818 13.423295454545453 1.8484209161931815 L 13.409712357954545 1.7988825639204542 L 13.320756392045453 1.7988825639204542 L 13.320756392045453 1.9712014559659088 L 13.555930397727272 1.9712014559659088 L 13.586825284090908 1.8833108309659088 Q 13.590553977272727 1.8750544389204542 13.597212357954545 1.869061896306818 Q 13.603870738636363 1.8630693536931815 13.6142578125 1.8630693536931815 Q 13.623046875 1.8630693536931815 13.628373579545453 1.868396058238636 Q 13.633700284090908 1.8737227627840907 13.633700284090908 1.8827781605113634 Q 13.633700284090908 1.8854415127840907 13.63330078125 1.888104865056818 Q 13.63290127840909 1.8907682173295453 13.632102272727272 1.8931652343749996 L 13.61532315340909 1.997302308238636 Q 13.612659801136363 2.006890376420454 13.607865767045453 2.0124834161931817 Q 13.603071732954545 2.018076455965909 13.593483664772727 2.018076455965909 L 13.183327414772727 2.018076455965909 Q 13.174005681818182 2.018076455965909 13.168812144886363 2.011284907670454 Q 13.163618607954545 2.0044933593749996 13.163618607954545 1.9957042968749996 Q 13.163618607954545 1.9858498934659088 13.168146306818182 1.9785256747159088 Q 13.172674005681818 1.9712014559659088 13.182794744318182 1.9712014559659088 L 13.258700284090908 1.9712014559659088 L 13.258700284090908 1.6084528764204542 L 13.2099609375 1.6084528764204542 Q 13.199840198863635 1.6084528764204542 13.195445667613635 1.6011286576704542 Q 13.191051136363635 1.5938044389204542 13.191051136363635 1.5839500355113634 Q 13.191051136363635 1.5751609730113634 13.196111505681818 1.5683694247159088 Q 13.201171875 1.5615778764204542 13.210493607954545 1.5615778764204542 L 13.582563920454545 1.5615778764204542 Q 13.592151988636363 1.5615778764204542 13.5966796875 1.567304083806818 Q 13.601207386363635 1.5730302911931815 13.604403409090908 1.5823520241477271 L 13.62997159090909 1.6667802911931815 Q 13.630770596590908 1.6697099786931815 13.631170099431818 1.6723733309659088 Q 13.631569602272727 1.675036683238636 13.631569602272727 1.677167365056818 Q 13.631569602272727 1.685956427556818 13.626109730113635 1.6914162997159088 Q 13.620649857954545 1.6968761718749996 13.612127130681818 1.6968761718749996 Q 13.602272727272727 1.6968761718749996 13.59521484375 1.6908836292613634 Q 13.588156960227272 1.6848910866477271 13.584694602272727 1.6766346946022725 L 13.555930397727272 1.6084528764204542 L 13.320756392045453 1.6084528764204542 L 13.320756392045453 1.7605302911931815 L 13.409712357954545 1.7605302911931815 L 13.423295454545453 1.7109919389204542 Q 13.425426136363635 1.703534552556818 13.430886008522727 1.6982078480113634 Q 13.436345880681818 1.6928811434659088 13.444602272727272 1.6928811434659088 Q 13.453657670454545 1.6928811434659088 13.458451704545453 1.6988736860795453 Q 13.463245738636363 1.7048662286931815 13.463245738636363 1.714187961647727 L 13.459250710227272 1.778641086647727 L 13.463245738636363 1.8452248934659088 M 13.667258522727272 1.5839500355113634 Q 13.667258522727272 1.5751609730113634 13.67245205965909 1.5683694247159088 Q 13.677645596590908 1.5615778764204542 13.686967329545453 1.5615778764204542 L 13.810280539772727 1.5615778764204542 Q 13.816672585227272 1.5615778764204542 13.820134943181817 1.563708558238636 Q 13.823597301136362 1.565839240056818 13.825994318181817 1.5708996093749996 L 14.060102982954545 1.904617649147727 L 14.060102982954545 1.6084528764204542 L 14.012162642045453 1.6084528764204542 Q 14.00204190340909 1.6084528764204542 13.997514204545453 1.6011286576704542 Q 13.992986505681817 1.5938044389204542 13.992986505681817 1.5839500355113634 Q 13.992986505681817 1.5751609730113634 13.998180042613635 1.5683694247159088 Q 14.003373579545453 1.5615778764204542 14.012695312499998 1.5615778764204542 L 14.167702414772727 1.5615778764204542 Q 14.177024147727272 1.5615778764204542 14.182084517045453 1.5683694247159088 Q 14.187144886363635 1.5751609730113634 14.187144886363635 1.5839500355113634 Q 14.187144886363635 1.5938044389204542 14.182750355113635 1.6011286576704542 Q 14.178355823863635 1.6084528764204542 14.168235085227272 1.6084528764204542 L 14.115234374999998 1.6084528764204542 L 14.115234374999998 2.003960688920454 Q 14.115234374999998 2.014081427556818 14.108176491477272 2.021006143465909 Q 14.101118607954545 2.0279308593749996 14.091264204545453 2.0279308593749996 Q 14.082741477272727 2.0279308593749996 14.07674893465909 2.0238026633522725 Q 14.070756392045453 2.019674467329545 14.066761363636362 2.013815092329545 L 13.795632102272727 1.630292365056818 L 13.795632102272727 1.9712014559659088 L 13.842507102272727 1.9712014559659088 Q 13.85262784090909 1.9712014559659088 13.857155539772727 1.9785256747159088 Q 13.861683238636362 1.9858498934659088 13.861683238636362 1.9957042968749996 Q 13.861683238636362 2.0044933593749996 13.856489701704545 2.011284907670454 Q 13.851296164772727 2.018076455965909 13.84197443181818 2.018076455965909 L 13.686967329545453 2.018076455965909 Q 13.677645596590908 2.018076455965909 13.67245205965909 2.011284907670454 Q 13.667258522727272 2.0044933593749996 13.667258522727272 1.9957042968749996 Q 13.667258522727272 1.9858498934659088 13.671786221590908 1.9785256747159088 Q 13.676313920454545 1.9712014559659088 13.686434659090908 1.9712014559659088 L 13.73943536931818 1.9712014559659088 L 13.73943536931818 1.6084528764204542 L 13.686434659090908 1.6084528764204542 Q 13.676313920454545 1.6084528764204542 13.671786221590908 1.6011286576704542 Q 13.667258522727272 1.5938044389204542 13.667258522727272 1.5839500355113634 L 13.667258522727272 1.5839500355113634 M 14.65056818181818 1.8659990411931815 Q 14.65056818181818 1.929919495738636 14.597034801136362 1.9773271661931815 Q 14.543501420454543 2.024734836647727 14.45427911931818 2.024734836647727 Q 14.353870738636362 2.024734836647727 14.286887428977272 1.9585505326704542 Q 14.21990411931818 1.8923662286931815 14.21990411931818 1.7813044389204542 Q 14.21990411931818 1.6798307173295453 14.288219105113635 1.6173751065340907 Q 14.356534090909088 1.554919495738636 14.459339488636362 1.554919495738636 Q 14.502752130681817 1.554919495738636 14.533913352272725 1.5694347656249996 Q 14.565074573863635 1.5839500355113634 14.58904474431818 1.6084528764204542 L 14.58904474431818 1.5807540127840907 Q 14.58904474431818 1.5706332741477271 14.59636896306818 1.5661055752840907 Q 14.60369318181818 1.5615778764204542 14.613547585227272 1.5615778764204542 Q 14.622336647727272 1.5615778764204542 14.629128196022725 1.5667714133522725 Q 14.63591974431818 1.5719649502840907 14.63591974431818 1.581286683238636 L 14.63591974431818 1.680896058238636 Q 14.63591974431818 1.6902177911931815 14.629128196022725 1.6954113281249996 Q 14.622336647727272 1.700604865056818 14.613547585227272 1.700604865056818 Q 14.604492187499998 1.700604865056818 14.600230823863635 1.6935469815340907 Q 14.595969460227272 1.6864890980113634 14.591175426136362 1.6798307173295453 Q 14.571732954545453 1.647870490056818 14.540438565340907 1.6265636718749996 Q 14.509144176136362 1.6052568536931815 14.459339488636362 1.6052568536931815 Q 14.380504261363635 1.6052568536931815 14.335227272727272 1.655993714488636 Q 14.289950284090907 1.7067305752840907 14.289950284090907 1.7842341264204542 Q 14.289950284090907 1.8715920809659088 14.33416193181818 1.9220626065340907 Q 14.378373579545453 1.9725331321022723 14.459339488636362 1.9725331321022723 Q 14.515536221590907 1.9725331321022723 14.550426136363635 1.9420377485795453 Q 14.585316051136362 1.911542365056818 14.595170454545453 1.8609386718749996 Q 14.597034801136362 1.8513506036931815 14.60515802556818 1.8466897372159088 Q 14.613281249999998 1.842028870738636 14.622336647727272 1.842028870738636 Q 14.632723721590907 1.842028870738636 14.641645951704543 1.8481545809659088 Q 14.65056818181818 1.8542802911931815 14.65056818181818 1.8659990411931815 L 14.65056818181818 1.8659990411931815 M 14.991210937499998 1.8452248934659088 Q 14.991210937499998 1.8545466264204542 14.986416903409088 1.8605391690340907 Q 14.98162286931818 1.866531711647727 14.972567471590907 1.866531711647727 Q 14.964311079545453 1.866531711647727 14.958851207386362 1.8612050071022725 Q 14.95339133522727 1.855878302556818 14.951260653409088 1.8484209161931815 L 14.93767755681818 1.7988825639204542 L 14.848721590909088 1.7988825639204542 L 14.848721590909088 1.9712014559659088 L 15.083895596590907 1.9712014559659088 L 15.114790482954543 1.8833108309659088 Q 15.118519176136362 1.8750544389204542 15.12517755681818 1.869061896306818 Q 15.131835937499998 1.8630693536931815 15.142223011363635 1.8630693536931815 Q 15.151012073863635 1.8630693536931815 15.156338778409088 1.868396058238636 Q 15.161665482954543 1.8737227627840907 15.161665482954543 1.8827781605113634 Q 15.161665482954543 1.8854415127840907 15.161265980113635 1.888104865056818 Q 15.160866477272725 1.8907682173295453 15.160067471590907 1.8931652343749996 L 15.143288352272725 1.997302308238636 Q 15.140624999999998 2.006890376420454 15.135830965909088 2.0124834161931817 Q 15.13103693181818 2.018076455965909 15.121448863636362 2.018076455965909 L 14.711292613636362 2.018076455965909 Q 14.701970880681817 2.018076455965909 14.696777343749998 2.011284907670454 Q 14.69158380681818 2.0044933593749996 14.69158380681818 1.9957042968749996 Q 14.69158380681818 1.9858498934659088 14.696111505681817 1.9785256747159088 Q 14.700639204545453 1.9712014559659088 14.710759943181817 1.9712014559659088 L 14.786665482954543 1.9712014559659088 L 14.786665482954543 1.6084528764204542 L 14.737926136363635 1.6084528764204542 Q 14.72780539772727 1.6084528764204542 14.72341086647727 1.6011286576704542 Q 14.71901633522727 1.5938044389204542 14.71901633522727 1.5839500355113634 Q 14.71901633522727 1.5751609730113634 14.724076704545453 1.5683694247159088 Q 14.729137073863635 1.5615778764204542 14.73845880681818 1.5615778764204542 L 15.11052911931818 1.5615778764204542 Q 15.120117187499998 1.5615778764204542 15.124644886363635 1.567304083806818 Q 15.12917258522727 1.5730302911931815 15.132368607954543 1.5823520241477271 L 15.157936789772725 1.6667802911931815 Q 15.158735795454543 1.6697099786931815 15.159135298295453 1.6723733309659088 Q 15.159534801136362 1.675036683238636 15.159534801136362 1.677167365056818 Q 15.159534801136362 1.685956427556818 15.15407492897727 1.6914162997159088 Q 15.14861505681818 1.6968761718749996 15.140092329545453 1.6968761718749996 Q 15.130237926136362 1.6968761718749996 15.123180042613635 1.6908836292613634 Q 15.116122159090907 1.6848910866477271 15.112659801136362 1.6766346946022725 L 15.083895596590907 1.6084528764204542 L 14.848721590909088 1.6084528764204542 L 14.848721590909088 1.7605302911931815 L 14.93767755681818 1.7605302911931815 L 14.951260653409088 1.7109919389204542 Q 14.95339133522727 1.703534552556818 14.958851207386362 1.6982078480113634 Q 14.964311079545453 1.6928811434659088 14.972567471590907 1.6928811434659088 Q 14.98162286931818 1.6928811434659088 14.986416903409088 1.6988736860795453 Q 14.991210937499998 1.7048662286931815 14.991210937499998 1.714187961647727 L 14.987215909090907 1.778641086647727 L 14.991210937499998 1.8452248934659088" fill="#e9e9e5" fill-rule="nonzero"></path></g><g clip-path="url(#SvgjsClipPath1002)"><g clip-path="url(#SvgjsClipPath10009bba6f73-26d1-4ce7-9c23-9831b617474c)"><path d=" M 0 -6.919321623360222 L 0 -2.4730216411338883 L 3.850499378407424 -0.24984598002486358 C 4.03578540849639 -0.35686419274873415 7.497410019680518 -2.35545306011318 7.700998756814848 -2.4729959711380314 L 7.700998756814848 -6.919475643335357 C 7.515327676788042 -7.026647876034362 4.052265545835974 -9.026135193253772 3.850499378407424 -9.142625634448523 Z M 3.6342810033119193 -4.571338442399085 L 3.6342810033119193 -0.8740375992605642 L 2.249538746853185 -1.6735809601889384 L 2.249538746853185 -5.371010153306739 Z M 0.6485524453030883 -6.794514103508108 L 2.03326903176597 -7.594185814415761 L 5.235190294874448 -5.745458382858931 L 3.850396698424002 -4.945915021930557 Z M 0.4323854101992959 -2.7226623508339696 L 0.4323854101992959 -6.420168553939337 L 1.8171533366538861 -5.620625193010964 L 1.8171533366538861 -1.923247339884874 Z M 7.268587676619692 -4.321723402694861 L 7.268587676619692 -2.722790700813248 L 4.066666413511218 -0.8740375992605642 L 4.066666413511218 -2.4731243211173126 Z M 4.066666413511215 -2.972303060534051 L 4.066666413511215 -4.571466792378365 L 7.268587676619692 -6.420168553939337 L 7.268587676619692 -4.8211331720743 Z M 7.0524206415159 -6.794565443499819 L 5.667652715061313 -5.9952017725424405 L 2.46570578195698 -7.843903534103413 L 3.8504737084115703 -8.643446895031788 Z" fill="#aac527" transform="matrix(1,0,0,1,0,0)" fill-rule="nonzero"></path></g></g></g><defs><clipPath id="SvgjsClipPath1002"><path d=" M 0 -9.142625634448523 h 7.700998756814848 v 8.892625634448523 h -7.700998756814848 Z"></path></clipPath><clipPath id="SvgjsClipPath10009bba6f73-26d1-4ce7-9c23-9831b617474c"><path d=" M 0 -9.142625634448523 L 7.700998756814848 -9.142625634448523 L 7.700998756814848 -0.25 L 0 -0.25 Z"></path></clipPath></defs></svg>